<svg width="43" height="40" viewBox="0 0 43 40" fill="none" xmlns="http://www.w3.org/2000/svg">
<path d="M42.0017 17.454C42.0017 17.454 41.6243 19.421 40.2294 20.9899C40.172 21.0563 40.1243 21.1274 40.0717 21.1937C39.8185 21.5113 39.5605 21.8147 39.3169 22.0991L39.7373 19.5727L40 19.3689C40 19.3689 40.1816 19.1982 40.4443 18.9612C40.9364 18.5015 41.7103 17.7668 42.0017 17.4492" fill="#293880"/>
<path d="M40.4444 18.9643C40.1816 19.2013 40.0001 19.372 40.0001 19.372L39.7373 19.5758L39.5653 19.7132C38.6672 20.41 37.7452 21.1162 36.8232 21.723C36.4219 21.9931 36.0493 22.2206 35.6719 22.4245C34.9075 22.8321 34.1814 23.2255 33.4074 23.5668C33.1877 23.6568 32.9632 23.7469 32.7386 23.8275L25.0138 4.88684L23.0026 0L21.0343 4.88684L14.5468 20.7702C13.9066 20.6707 13.2808 20.6233 12.6789 20.6233C12.4161 20.6233 12.1582 20.6328 11.9145 20.647C10.1087 20.7371 8.29334 21.2016 6.48753 22.05C5.57985 22.4908 4.74861 22.9885 3.9938 23.5431C3.26287 24.0834 2.60361 24.6854 2.01601 25.3348H2.00645L1.98257 25.3679C1.93957 25.4153 1.90135 25.458 1.85836 25.5007L1.86791 25.5149L0 27.9227C0 27.9227 1.2182 27.1312 2.59406 26.3775L2.60361 26.3918C3.27721 26.0173 3.93647 25.6997 4.5814 25.4438C6.64996 24.5858 8.77107 24.1545 10.897 24.1545C11.2361 24.1545 11.5658 24.164 11.9002 24.1877C12.3062 24.2019 12.698 24.2446 13.104 24.3204L11.3508 28.6005L10.8635 29.795L11.776 29.7618C12.7075 29.7286 13.6964 29.7144 14.7904 29.7144H15.1869L15.5166 28.9371L15.6838 28.5389L16.945 25.5338L17.48 25.7803C17.6855 25.8704 17.8909 25.9936 18.1059 26.1216C18.2396 26.2022 18.3782 26.2875 18.5024 26.3491L19.0135 26.6524L19.625 27.0127L20.2843 27.3966L20.934 27.7142C22.5296 28.501 24.302 28.8897 26.1794 28.8897C26.3275 28.8897 26.4661 28.8897 26.6142 28.8802C27.5123 28.847 28.4582 28.7096 29.4328 28.4773C29.7528 28.3872 30.0586 28.2972 30.3643 28.1977L31.1239 30.051L31.6494 31.3355L31.9695 31.3923C32.6622 31.5156 33.3358 31.6388 34.0189 31.7621L36.1257 32.1365L35.605 30.8473H35.5954L33.8804 26.624C34.855 26.0505 35.8391 25.3727 36.871 24.5479L36.914 24.5053C37.0477 24.3915 37.1767 24.2778 37.3009 24.164C37.9745 23.5668 38.6529 22.8747 39.3265 22.0974C39.5749 21.813 39.8281 21.5097 40.0861 21.1921C40.1338 21.1257 40.1864 21.0546 40.2437 20.9883C41.6339 19.4194 42.0113 17.4523 42.0113 17.4523C41.7247 17.7699 40.9508 18.5046 40.4539 18.9643M28.955 24.9129C28.2528 25.0267 27.5553 25.0788 26.8721 25.0788H26.5903C25.0186 25.0124 23.5663 24.6522 22.286 24.0171L21.7843 23.7658L20.6951 23.1117L20.055 22.742C19.9642 22.6946 19.8734 22.6425 19.7445 22.5524L19.5295 22.4387C19.3002 22.3012 19.0517 22.1685 18.7794 22.0453L18.2587 21.8414L23.0121 10.205L29.0171 24.9034C29.0171 24.9034 28.9741 24.9129 28.9598 24.9129" fill="#C66628"/>
<path d="M7.09912 39.0142L11.3461 28.6054L11.7283 28.5912C12.6694 28.5533 13.6679 28.5391 14.781 28.5391H15.6743L14.437 31.4683L11.2601 39.0142H7.09912Z" fill="#0084AE"/>
<path d="M34.7591 39.0123L31.1045 30.0586L32.1555 30.2387C32.8482 30.3572 33.5313 30.4804 34.2097 30.6037L35.5903 30.8502L36.6461 33.4334L38.9153 39.0075H34.7591V39.0123Z" fill="#0084AE"/>
</svg>
