<svg width="21" height="20" viewBox="0 0 21 20" fill="none" xmlns="http://www.w3.org/2000/svg">
<path d="M19.5 17H1.5C0.947715 17 0.5 16.5523 0.5 16V15.5C0.5 14.9477 0.947716 14.5 1.5 14.5H19.5C20.0523 14.5 20.5 14.9477 20.5 15.5V16C20.5 16.5523 20.0523 17 19.5 17Z" stroke="black" stroke-linecap="round"/>
<path d="M2.62793 14.5C2.62793 10.0817 6.20965 6.5 10.6279 6.5H10.713M18.7981 14.5C18.7981 10.0817 15.2164 6.5 10.7981 6.5H10.713M10.713 6.5V4C10.713 3.44772 10.2653 3 9.71304 3H8.58538H12.8407" stroke="black" stroke-linecap="round"/>
</svg>
