<svg width="20" height="20" viewBox="0 0 20 20" fill="none" xmlns="http://www.w3.org/2000/svg">
<path d="M3 4.99609L17 4.49609M3 7.99609L17 7.49609M7.49044 12.6204L7.03624 18.525C7.02795 18.6328 7.17275 18.6753 7.22399 18.5801L10.4717 12.5487C10.4891 12.5163 10.5229 12.4961 10.5597 12.4961H19.3957C19.4526 12.4961 19.498 12.4487 19.4957 12.3919L19.0041 0.594557C19.0018 0.539946 18.9561 0.49728 18.9015 0.498756L0.597298 0.993464C0.543142 0.994928 0.5 1.03925 0.5 1.09343V13.3808C0.5 13.4416 0.553899 13.4884 0.614142 13.4798L7.37659 12.5137C7.43992 12.5047 7.49535 12.5566 7.49044 12.6204Z" stroke="white" stroke-linecap="round"/>
</svg>
