<svg width="18" height="21" viewBox="0 0 18 21" fill="none" xmlns="http://www.w3.org/2000/svg">
<path d="M1.18789 7.46484C-0.782869 4.70578 1.9394 1.72016 3.61406 0.517207C3.65627 0.486884 3.71282 0.494748 3.74606 0.534706C4.59511 1.55535 6.45111 3.82295 7.62801 5.38522C7.66133 5.42945 7.65027 5.4928 7.60593 5.52597C4.99747 7.47708 4.87779 8.06617 5.18787 8.46484C6.35453 9.96484 8.88787 13.2648 9.68787 14.4648C10.4737 15.6435 11.9465 14.0243 13.42 12.545C13.4625 12.5024 13.5326 12.5068 13.5695 12.5543L16.9394 16.887C16.973 16.9302 16.9657 16.9923 16.9233 17.0269C16.106 17.6943 15.1269 18.6892 13.1879 19.4648C11.5 20.14 9.35453 18.4648 8.68787 17.4648C7.02121 15.2982 3.18789 10.2648 1.18789 7.46484Z" stroke="white"/>
</svg>
