<svg width="20" height="20" viewBox="0 0 20 20" fill="none" xmlns="http://www.w3.org/2000/svg">
<mask id="path-1-inside-1_2691_30972" fill="white">
<path d="M10.4141 1C14.511 1.00008 17.8578 4.32194 17.8574 8.41895C17.8571 10.349 17.1039 12.2027 15.7588 13.5869L10.5 19L5.13965 13.5889C3.76893 12.2051 2.99982 10.3354 3 8.3877C3.00061 4.30743 6.33375 1 10.4141 1ZM10.5 6C9.67157 6 9 6.67157 9 7.5C9 8.32843 9.67157 9 10.5 9C11.3284 9 12 8.32843 12 7.5C12 6.67157 11.3284 6 10.5 6Z"/>
</mask>
<path d="M10.4141 1L10.4141 0H10.4141V1ZM17.8574 8.41895L18.8574 8.41909V8.41904L17.8574 8.41895ZM15.7588 13.5869L15.0416 12.89L15.0415 12.8901L15.7588 13.5869ZM10.5 19L9.78957 19.7038L10.507 20.4279L11.2173 19.6968L10.5 19ZM5.13965 13.5889L4.4292 14.2926L4.42922 14.2926L5.13965 13.5889ZM3 8.3877L2 8.38755V8.3876L3 8.3877ZM10.4141 1L10.414 2C13.9631 2.00007 16.8578 4.87859 16.8574 8.41885L17.8574 8.41895L18.8574 8.41904C18.8579 3.7653 15.0589 9.4831e-05 10.4141 0L10.4141 1ZM17.8574 8.41895L16.8574 8.4188C16.8572 10.0884 16.2056 11.6922 15.0416 12.89L15.7588 13.5869L16.476 14.2838C18.0021 12.7132 18.8571 10.6097 18.8574 8.41909L17.8574 8.41895ZM15.7588 13.5869L15.0415 12.8901L9.78274 18.3032L10.5 19L11.2173 19.6968L16.476 14.2837L15.7588 13.5869ZM10.5 19L11.2104 18.2962L5.85008 12.8851L5.13965 13.5889L4.42922 14.2926L9.78957 19.7038L10.5 19ZM5.13965 13.5889L5.8501 12.8851C4.6649 11.6886 3.99984 10.0719 4 8.38779L3 8.3877L2 8.3876C1.99979 10.5989 2.87296 12.7216 4.4292 14.2926L5.13965 13.5889ZM3 8.3877L4 8.38785C4.00053 4.86424 6.88153 2 10.4141 2V1V0C5.78596 0 2.00069 3.75063 2 8.38755L3 8.3877ZM10.5 6V5C9.11929 5 8 6.11929 8 7.5H9H10C10 7.22386 10.2239 7 10.5 7V6ZM9 7.5H8C8 8.88071 9.11929 10 10.5 10V9V8C10.2239 8 10 7.77614 10 7.5H9ZM10.5 9V10C11.8807 10 13 8.88071 13 7.5H12H11C11 7.77614 10.7761 8 10.5 8V9ZM12 7.5H13C13 6.11929 11.8807 5 10.5 5V6V7C10.7761 7 11 7.22386 11 7.5H12Z" fill="black" mask="url(#path-1-inside-1_2691_30972)"/>
</svg>
