<svg width="20" height="20" viewBox="0 0 20 20" fill="none" xmlns="http://www.w3.org/2000/svg">
<path d="M16.9814 3.6C16.9814 2.71632 16.3953 2 15.6724 2H4.3269C3.60389 2 3.01781 2.71632 3.01781 3.6V9.46667H16.9814V3.6Z" stroke="black" stroke-linecap="round" stroke-linejoin="round"/>
<path d="M17.855 15.8672V18.0005" stroke="black" stroke-linecap="round" stroke-linejoin="round"/>
<path d="M2.14453 15.8672V18.0005" stroke="black" stroke-linecap="round" stroke-linejoin="round"/>
<path d="M11.7456 6.79688H14.3638C15.0868 6.79688 15.6729 7.51319 15.6729 8.39687V9.46354H10.4365V8.39687C10.4365 7.51319 11.0226 6.79688 11.7456 6.79688Z" stroke="black" stroke-linecap="round" stroke-linejoin="round"/>
<path d="M5.6362 6.79688H8.25439C8.9774 6.79688 9.56348 7.51319 9.56348 8.39687V9.46354H4.32711V8.39687C4.32711 7.51319 4.91319 6.79688 5.6362 6.79688Z" stroke="black" stroke-linecap="round" stroke-linejoin="round"/>
<path d="M18.7271 11.0688C18.7271 10.1851 18.1409 9.46875 17.418 9.46875H2.5816C1.85859 9.46875 1.27251 10.1851 1.27251 11.0688V15.8688H18.7271V11.0688Z" stroke="black" stroke-linecap="round" stroke-linejoin="round"/>
</svg>
