<svg width="233" height="79" viewBox="0 0 233 79" fill="none" xmlns="http://www.w3.org/2000/svg">
<path fill-rule="evenodd" clip-rule="evenodd" d="M10.2517 26.8593C11.1927 26.9578 12.0898 27.0015 12.615 27.0015C16.9586 27.0015 19.8798 24.5945 19.8798 20.9622C19.8798 17.3298 17.1008 15.1636 12.3305 15.1636C11.7178 15.1636 11.2911 15.2073 10.2517 15.3058V26.8702V26.8593ZM10.2517 13.5553C17.801 14.0695 18.8842 9.59467 18.8842 7.65815C18.8842 4.78072 16.5209 2.88798 12.801 2.88798C12.1883 2.88798 11.4771 2.98645 10.2517 3.17245V13.5553ZM14.9673 1.37814C20.0221 1.37814 23.0308 3.68664 23.0308 7.55969C23.0308 12.5159 18.2168 13.6428 16.4225 14.1133C19.5844 14.5837 21.335 15.3933 22.7026 16.9469C23.7858 18.1723 24.3547 19.6821 24.3547 21.4327C24.3547 23.0847 23.5998 24.879 22.3744 26.1044C20.766 27.7564 18.4137 28.5114 14.8251 28.5114L2.60392 28.5551C2.31946 28.5551 2.27571 28.4567 2.27571 28.2707L2.23193 27.275C2.23193 27.1328 2.41795 26.9906 2.65865 26.9906H4.16852C5.63462 26.9906 6.33482 25.809 6.33482 23.2598V6.03893C6.33482 3.87265 5.67837 2.77856 4.2998 2.77856H2.93218C2.64771 2.77856 2.50546 2.68008 2.50546 2.49409V1.50942C2.50546 1.41096 2.60394 1.36719 2.93218 1.36719H14.9673V1.37814Z" fill="white"/>
<path fill-rule="evenodd" clip-rule="evenodd" d="M56.7404 29.0255C56.4559 28.9271 55.9417 27.5157 55.0883 24.9227C53.7644 21.0059 51.5981 15.1964 48.6222 7.60346L47.6812 9.91195L44.8037 17.5596L42.911 22.7018C41.6418 26.3341 41.1166 27.7564 40.9744 28.3144C40.8321 28.8833 40.7337 29.0255 40.6024 29.0255H38.9065C38.6221 29.0255 38.5236 28.9271 38.4361 28.6426C38.2938 28.3144 38.0641 27.5595 37.6374 26.2794C36.6417 23.0737 33.8627 15.0979 32.8671 12.2642L32.0684 10.098C29.8036 3.81794 29.3769 2.83325 27.3966 2.83325C27.0683 2.83325 26.8823 2.73478 26.8823 2.59255V1.69543C26.8823 1.50944 27.0246 1.36719 27.1668 1.36719H38.5892C38.7752 1.36719 38.9175 1.50944 38.9175 1.69543V2.49409C38.9175 2.68008 38.6877 2.82233 38.2063 2.82233C36.1275 2.82233 34.9021 3.06301 34.9021 4.61661C34.9021 5.69975 35.8977 9.10234 39.0597 18.6318L40.6133 23.1613C41.1276 21.9359 41.3245 21.5092 41.8387 20.1416C42.7797 17.6909 44.2458 13.4896 46.3246 7.59251L47.3202 4.71507L48.2173 2.30811C48.5018 1.45473 48.5018 1.36719 48.6441 1.36719H50.4384C50.6244 1.36719 50.8651 2.1221 51.1496 2.97549L53.4143 9.2555L58.5129 23.1722C60.6354 16.75 61.2044 14.9557 63.7536 6.99078C64.0818 5.9514 64.3225 5.10896 64.3225 4.35404C64.3225 3.31466 63.4254 2.8442 61.3028 2.8442C60.8761 2.8442 60.6901 2.74573 60.6901 2.55973V1.66258C60.6901 1.42188 60.8324 1.37814 61.1168 1.37814H69.6618C69.9025 1.37814 70.0447 1.47659 70.0447 1.80481V2.4175C70.0447 2.74572 69.9462 2.8442 69.6618 2.8442C68.1519 2.8442 67.6377 3.17242 66.7405 5.53563L65.5151 8.69754C64.5195 11.203 60.6573 23.0409 59.8039 25.7323L59.1912 27.6142C58.863 28.6535 58.7207 29.0255 58.48 29.0255H56.7842H56.7404Z" fill="white"/>
<path fill-rule="evenodd" clip-rule="evenodd" d="M92.8453 14.8197C96.051 14.9619 102.659 15.2464 102.659 8.68188C102.659 2.1174 96.3793 2.68632 92.8453 2.87232V14.8087V14.8197ZM98.6988 1.37343C103.611 1.37343 107.101 4.39311 107.101 8.63814C107.101 13.5396 102.758 16.5155 95.6353 16.5155C94.8366 16.5155 94.2239 16.4717 92.8563 16.3733V21.045C92.8563 26.7999 92.9 26.8546 96.2589 26.9859C97.4405 27.0296 97.539 27.0296 97.539 27.3141V28.255C97.539 28.3972 97.353 28.4847 97.2108 28.4847L84.7599 28.5285C84.4317 28.5285 84.4316 28.43 84.4316 28.1456V27.3907C84.4316 27.0077 84.4754 27.0078 85.4711 26.964C87.0247 26.964 87.9656 26.8217 88.2501 26.4935C88.7205 25.9684 88.9612 22.6752 88.9612 16.0669V10.1261C88.9612 6.44997 88.8628 3.84607 88.2501 3.23338C87.9656 2.94892 87.0247 2.7629 85.7446 2.7629C84.4645 2.7629 84.377 2.76291 84.377 2.39092V1.67977C84.377 1.39531 84.5192 1.35156 84.7599 1.35156H98.7316L98.6988 1.37343Z" fill="white"/>
<path fill-rule="evenodd" clip-rule="evenodd" d="M116.446 26.8399C117.583 27.0806 118.284 27.1243 119.564 27.1243C120.505 27.1243 120.745 27.1243 120.745 27.365V28.2075C120.745 28.4482 120.702 28.4482 120.133 28.4919L110.133 28.5357C109.804 28.5357 109.662 28.3935 109.662 28.2075V27.4088C109.662 27.1681 109.804 27.1243 110.461 27.1243C112.496 27.0806 112.868 26.1834 112.868 20.713C112.868 15.7131 112.638 11.3696 112.299 11.0413C112.113 10.8006 111.785 10.8006 110.275 10.8006C109.804 10.8006 109.662 10.7569 109.662 10.5162V9.66278C109.662 9.56431 109.848 9.4768 110.231 9.4768C110.986 9.43304 111.456 9.43303 111.697 9.43303L112.879 9.33457C114.246 9.2361 115.187 9.19234 115.658 9.09387L115.986 9.0501C116.128 9.0501 116.216 9.29079 116.216 9.66278V13.6233C118.864 10.0348 120.745 8.76562 123.623 8.76562C124.947 8.76562 125.133 8.90789 125.133 9.37834L124.991 13.3936C124.991 13.4921 124.892 13.7765 124.804 13.7765H123.864C123.721 13.7765 123.623 13.6343 123.579 13.3061C123.251 12.2229 122.594 11.6978 121.5 11.6978C119.422 11.6978 116.216 14.5752 116.216 17.9231C116.216 20.5161 116.26 23.0653 116.402 25.6582L116.446 26.8399Z" fill="white"/>
<path fill-rule="evenodd" clip-rule="evenodd" d="M139.816 15.4848C140.1 15.4848 140.242 15.1566 140.242 14.4017C140.242 12.0385 138.492 10.2551 136.183 10.2551C133.546 10.2551 131.468 12.3339 130.942 15.4958H139.816V15.4848ZM130.658 16.8962C130.286 25.058 135.144 26.5241 137.496 26.5241C139.247 26.5241 141.271 25.5832 142.266 23.9749C142.496 23.592 142.551 23.5044 142.835 23.592L143.448 23.9749C143.546 24.0187 143.59 24.1171 143.59 24.2156C143.59 25.3425 140.757 29.1718 135.855 29.1718C130.953 29.1718 126.938 25.2112 126.938 19.6861C126.938 13.6905 131.227 8.78906 136.511 8.78906C140.757 8.78906 144.159 11.6665 144.159 15.2989C144.159 16.5242 143.875 16.8962 143.032 16.8962H130.669H130.658Z" fill="white"/>
<path fill-rule="evenodd" clip-rule="evenodd" d="M153.601 26.9821C154.4 27.0259 154.969 27.0806 155.395 27.0806C156.763 27.1243 156.905 27.1243 156.905 27.4088V28.0652C156.905 28.3497 156.807 28.4919 156.577 28.4919L147.332 28.5357C146.905 28.5357 146.861 28.4919 146.861 28.2512V27.3979C146.861 27.1572 146.905 27.1134 147.091 27.1134C149.597 27.0149 150.067 26.4569 150.067 18.7655C150.067 13.4811 149.881 11.6868 149.356 11.1179C149.028 10.7897 148.316 10.7897 147.419 10.7897C147.135 10.7897 147.091 10.7459 147.091 10.4615V9.70655C147.091 9.52056 147.233 9.46585 147.748 9.46585C148.645 9.46585 152.518 9.03915 153.218 9.03915C153.404 9.03915 153.448 9.13762 153.448 9.42208V12.6825C155.472 10.1332 158.021 8.76562 160.669 8.76562C162.977 8.76562 164.63 9.94724 165.581 12.2995C168.273 9.60808 169.969 8.76562 172.474 8.76562C175.778 8.76562 177.474 10.7022 177.474 14.5205L177.431 17.2119C177.332 21.085 177.387 23.0653 177.529 25.8989L177.573 26.8946C178.328 27.0368 179.039 27.0806 179.695 27.1243C179.936 27.1243 180.166 27.1243 180.166 27.4088V28.2075C180.166 28.4482 180.067 28.4919 179.695 28.4919L171.249 28.5357C170.964 28.5357 170.778 28.3935 170.778 28.109V27.4963C170.778 27.1134 170.822 27.1134 171.347 27.1134C173.47 27.1134 174.039 25.9318 174.039 20.0347C174.039 16.5883 173.853 14.5205 173.426 13.5249C172.901 12.2557 171.774 11.3586 170.647 11.3586C168.711 11.3586 166.916 12.584 165.505 14.9472C165.406 18.4811 165.406 20.702 165.461 25.4175V26.8836C166.172 27.0259 167.157 27.0696 168.153 27.1134C168.722 27.1134 168.864 27.1134 168.864 27.2994V28.1965C168.864 28.3825 168.722 28.481 168.295 28.481L159.279 28.5248C158.995 28.5248 158.896 28.3825 158.896 28.098V27.3869C158.896 27.1024 158.94 27.1024 159.323 27.1024C161.676 27.1024 162.058 26.1068 162.058 19.8377C162.058 16.1616 162.058 11.4352 158.284 11.4352C156.632 11.4352 155.264 12.4746 153.47 14.9691V16.4351C153.426 18.9843 153.47 22.9887 153.568 25.5379L153.612 26.9493L153.601 26.9821Z" fill="white"/>
<path fill-rule="evenodd" clip-rule="evenodd" d="M189.75 2.36322C189.75 3.68706 188.667 4.72644 187.398 4.72644C186.128 4.72644 185.034 3.64329 185.034 2.36322C185.034 1.08314 186.074 0 187.398 0C188.721 0 189.75 1.08314 189.75 2.36322ZM189.465 9.77013C189.367 11.0502 189.279 14.6278 189.279 18.0742C189.279 21.7503 189.323 24.6278 189.509 26.8487C190.877 27.0347 191.632 27.1332 192.102 27.1332C192.43 27.1332 192.627 27.1332 192.627 27.4177V28.0741C192.627 28.4023 192.529 28.5008 192.058 28.5008L182.616 28.5446C182.288 28.5446 182.146 28.4023 182.102 28.1179V27.4614C182.102 27.2207 182.288 27.1332 182.671 27.1332C185.505 27.1332 185.877 26.7612 185.877 20.9954V14.3872C185.877 10.7986 185.833 10.7986 183.371 10.7986C182.573 10.7986 182.43 10.7548 182.43 10.3281V9.71544C182.43 9.47474 182.529 9.47474 183.284 9.47474C184.181 9.47474 188.612 9.10276 188.94 9.10276C189.411 9.10276 189.465 9.20122 189.465 9.47474V9.75921V9.77013Z" fill="white"/>
<path fill-rule="evenodd" clip-rule="evenodd" d="M208.153 15.4848C208.438 15.4848 208.58 15.1566 208.58 14.4017C208.58 12.0385 206.829 10.2551 204.521 10.2551C201.873 10.2551 199.805 12.3339 199.28 15.4958H208.153V15.4848ZM198.996 16.8962C198.613 25.058 203.481 26.5241 205.834 26.5241C207.584 26.5241 209.608 25.5832 210.593 23.9749C210.834 23.592 210.877 23.5044 211.162 23.592L211.775 23.9749C211.873 24.0187 211.917 24.1171 211.917 24.2156C211.917 25.3425 209.083 29.1718 204.182 29.1718C199.28 29.1718 195.265 25.2112 195.265 19.6861C195.265 13.6905 199.564 8.78906 204.849 8.78906C209.094 8.78906 212.486 11.6665 212.486 15.2989C212.486 16.5242 212.201 16.8962 211.359 16.8962H198.996Z" fill="white"/>
<path fill-rule="evenodd" clip-rule="evenodd" d="M221.698 26.8399C222.836 27.0806 223.537 27.1243 224.817 27.1243C225.758 27.1243 225.998 27.1243 225.998 27.365V28.2075C225.998 28.4482 225.955 28.4482 225.386 28.4919L215.386 28.5357C215.057 28.5357 214.915 28.3935 214.915 28.2075V27.4088C214.915 27.1681 215.057 27.1243 215.714 27.1243C217.749 27.0806 218.121 26.1834 218.121 20.713C218.121 15.7131 217.891 11.3696 217.552 11.0413C217.366 10.8006 217.038 10.8006 215.528 10.8006C215.057 10.8006 214.915 10.7569 214.915 10.5162V9.66278C214.915 9.56431 215.101 9.4768 215.484 9.4768C216.239 9.43304 216.709 9.43303 216.95 9.43303L218.132 9.33457C219.499 9.2361 220.44 9.19234 220.911 9.09387L221.239 9.0501C221.381 9.0501 221.469 9.29079 221.469 9.66278V13.6233C224.106 10.0348 225.998 8.76562 228.876 8.76562C230.2 8.76562 230.386 8.90789 230.386 9.37834L230.243 13.3936C230.243 13.4921 230.145 13.7765 230.057 13.7765H229.117C228.974 13.7765 228.876 13.6343 228.832 13.3061C228.504 12.2229 227.836 11.6978 226.753 11.6978C224.674 11.6978 221.469 14.5752 221.469 17.9231C221.469 20.5161 221.513 23.0653 221.655 25.6582L221.698 26.8399Z" fill="white"/>
<path fill-rule="evenodd" clip-rule="evenodd" d="M47.1013 46.0569C47.1013 47.0087 47.2435 47.8621 47.5389 48.617C47.8234 49.3719 48.2173 50.0174 48.7205 50.5426C49.2238 51.0677 49.8146 51.4616 50.5039 51.7461C51.1932 52.0305 51.9262 52.1618 52.7359 52.1618C53.2063 52.1618 53.6659 52.0633 54.1145 51.8774C54.563 51.6914 54.9788 51.4507 55.3617 51.1553C55.7447 50.8599 56.0839 50.5207 56.3793 50.1487C56.6747 49.7767 56.9263 49.4047 57.1232 49.0218L58.0861 49.6345C57.8016 50.094 57.4734 50.5316 57.0904 50.9583C56.7075 51.385 56.2699 51.757 55.7666 52.0743C55.2633 52.3916 54.6943 52.6542 54.0597 52.8511C53.4252 53.048 52.725 53.1465 51.9372 53.1465C50.8103 53.1465 49.7818 52.9605 48.8627 52.5776C47.9328 52.1947 47.145 51.6914 46.4886 51.0349C45.8321 50.3894 45.3288 49.6345 44.9677 48.7811C44.6067 47.9277 44.4316 47.0197 44.4316 46.0569C44.4316 45.0941 44.6176 44.186 44.9787 43.3217C45.3507 42.4573 45.8649 41.6915 46.5323 41.035C47.1997 40.3786 48.0094 39.8534 48.9393 39.4705C49.8803 39.0876 50.9087 38.8906 52.0466 38.8906C52.7687 38.8906 53.4361 38.9891 54.0488 39.186C54.6615 39.383 55.2086 39.6346 55.7118 39.9628C56.2151 40.2911 56.6637 40.6521 57.0576 41.0788C57.4515 41.5055 57.7906 41.9431 58.0751 42.4026L57.0795 43.0591C56.4996 41.954 55.865 41.1444 55.1648 40.6412C54.4646 40.1379 53.6549 39.8862 52.7359 39.8862C51.9591 39.8862 51.2151 40.0285 50.5258 40.3129C49.8365 40.5974 49.2347 41.0022 48.7315 41.5383C48.2282 42.0744 47.8233 42.7199 47.5279 43.4858C47.2325 44.2516 47.0903 45.1159 47.0903 46.0678L47.1013 46.0569Z" fill="white"/>
<path fill-rule="evenodd" clip-rule="evenodd" d="M69.2453 52.4353C70.0221 52.4353 70.7114 52.2712 71.3131 51.943C71.904 51.6148 72.4073 51.1662 72.823 50.5863C73.2278 50.0065 73.5451 49.3172 73.753 48.5185C73.9609 47.7198 74.0703 46.8446 74.0703 45.9037C74.0703 44.9628 73.9609 44.1203 73.753 43.3326C73.5451 42.5558 73.2388 41.8775 72.823 41.3195C72.4073 40.7506 71.9149 40.3129 71.3131 40.0066C70.7223 39.7002 70.033 39.5361 69.2453 39.5361C68.4575 39.5361 67.7573 39.6893 67.1555 40.0066C66.5538 40.3129 66.0505 40.7615 65.6348 41.3195C65.2299 41.8775 64.9236 42.5558 64.7157 43.3326C64.5078 44.1094 64.4094 44.9737 64.4094 45.9037C64.4094 46.8337 64.5078 47.7198 64.7157 48.5185C64.9236 49.3172 65.2299 50.0065 65.6348 50.5863C66.0396 51.1662 66.5428 51.6148 67.1555 51.943C67.7573 52.2712 68.4575 52.4353 69.2453 52.4353ZM69.2453 53.1246C68.1949 53.1246 67.2103 52.9386 66.2912 52.5557C65.3722 52.1728 64.5735 51.6586 63.906 51.0021C63.2277 50.3457 62.7026 49.5798 62.3196 48.7154C61.9367 47.8402 61.7397 46.9102 61.7397 45.9146C61.7397 44.919 61.9367 44.0219 62.3196 43.1685C62.7026 42.3151 63.2386 41.5711 63.906 40.9366C64.5844 40.302 65.3722 39.8097 66.2912 39.4377C67.2103 39.0657 68.1949 38.8906 69.2453 38.8906C70.2956 38.8906 71.2803 39.0766 72.1994 39.4377C73.1184 39.8097 73.9062 40.302 74.5845 40.9366C75.2628 41.5711 75.788 42.3151 76.171 43.1685C76.5539 44.0219 76.7508 44.9409 76.7508 45.9146C76.7508 46.8883 76.5539 47.8402 76.171 48.7154C75.788 49.5907 75.2519 50.3457 74.5845 51.0021C73.9062 51.6586 73.1184 52.1728 72.1994 52.5557C71.2803 52.9277 70.2956 53.1246 69.2453 53.1246Z" fill="white"/>
<path fill-rule="evenodd" clip-rule="evenodd" d="M81.0073 39.1953H83.294V51.9195H90.154V52.8057H81.0073V39.1953Z" fill="white"/>
<path fill-rule="evenodd" clip-rule="evenodd" d="M93.48 39.1953H95.7667V51.9195H102.627V52.8057H93.48V39.1953Z" fill="white"/>
<path fill-rule="evenodd" clip-rule="evenodd" d="M115.417 39.1953V40.0706H108.24V44.9392H113.043V45.8254H108.24V51.9195H115.417V52.8057H105.953V39.1953H115.417Z" fill="white"/>
<path fill-rule="evenodd" clip-rule="evenodd" d="M121.479 46.0569C121.479 47.0087 121.621 47.8621 121.905 48.617C122.19 49.3719 122.595 50.0174 123.098 50.5426C123.601 51.0677 124.192 51.4616 124.881 51.7461C125.571 52.0305 126.304 52.1618 127.113 52.1618C127.584 52.1618 128.054 52.0633 128.492 51.8774C128.94 51.6914 129.356 51.4507 129.739 51.1553C130.122 50.8599 130.461 50.5207 130.757 50.1487C131.052 49.7767 131.304 49.4047 131.501 49.0218L132.463 49.6345C132.179 50.094 131.851 50.5316 131.468 50.9583C131.085 51.385 130.647 51.757 130.144 52.0743C129.641 52.3916 129.072 52.6542 128.437 52.8511C127.803 53.048 127.102 53.1465 126.315 53.1465C125.188 53.1465 124.159 52.9605 123.24 52.5776C122.31 52.1947 121.522 51.6914 120.866 51.0349C120.21 50.3894 119.706 49.6345 119.345 48.7811C118.984 47.9277 118.809 47.0197 118.809 46.0569C118.809 45.0941 118.995 44.186 119.356 43.3217C119.728 42.4573 120.242 41.6915 120.91 41.035C121.577 40.3786 122.387 39.8534 123.317 39.4705C124.258 39.0876 125.286 38.8906 126.424 38.8906C127.146 38.8906 127.814 38.9891 128.426 39.186C129.039 39.383 129.597 39.6346 130.1 39.9628C130.603 40.2911 131.052 40.6521 131.446 41.0788C131.84 41.5055 132.179 41.9431 132.463 42.4026L131.468 43.0591C130.888 41.954 130.253 41.1444 129.553 40.6412C128.853 40.1379 128.043 39.8862 127.124 39.8862C126.347 39.8862 125.603 40.0285 124.914 40.3129C124.225 40.5974 123.623 41.0022 123.12 41.5383C122.617 42.0744 122.212 42.7199 121.916 43.4858C121.621 44.2516 121.479 45.1159 121.479 46.0678V46.0569Z" fill="white"/>
<path fill-rule="evenodd" clip-rule="evenodd" d="M147.54 39.1953V40.0706H142.616V52.8057H140.318V40.0706H135.395V39.1953H147.54Z" fill="white"/>
<path d="M153.35 39.1953H151.063V52.8057H153.35V39.1953Z" fill="white"/>
<path fill-rule="evenodd" clip-rule="evenodd" d="M165.122 52.4353C165.899 52.4353 166.588 52.2712 167.19 51.943C167.78 51.6148 168.284 51.1662 168.699 50.5863C169.104 50.0065 169.422 49.3172 169.629 48.5185C169.837 47.7198 169.947 46.8446 169.947 45.9037C169.947 44.9628 169.837 44.1203 169.629 43.3326C169.422 42.5558 169.115 41.8775 168.699 41.3195C168.295 40.7506 167.791 40.3129 167.19 40.0066C166.599 39.7002 165.91 39.5361 165.122 39.5361C164.334 39.5361 163.634 39.6893 163.032 40.0066C162.43 40.3129 161.927 40.7615 161.511 41.3195C161.106 41.8775 160.8 42.5558 160.592 43.3326C160.384 44.1094 160.286 44.9737 160.286 45.9037C160.286 46.8337 160.384 47.7198 160.592 48.5185C160.8 49.3172 161.106 50.0065 161.511 50.5863C161.916 51.1662 162.419 51.6148 163.032 51.943C163.634 52.2712 164.334 52.4353 165.122 52.4353ZM165.122 53.1246C164.071 53.1246 163.087 52.9386 162.168 52.5557C161.249 52.1728 160.45 51.6586 159.783 51.0021C159.104 50.3457 158.579 49.5798 158.196 48.7154C157.813 47.8402 157.616 46.9102 157.616 45.9146C157.616 44.919 157.813 44.0219 158.196 43.1685C158.579 42.3151 159.115 41.5711 159.783 40.9366C160.461 40.302 161.249 39.8097 162.168 39.4377C163.087 39.0657 164.071 38.8906 165.122 38.8906C166.172 38.8906 167.157 39.0766 168.076 39.4377C168.995 39.8097 169.794 40.302 170.461 40.9366C171.139 41.5711 171.664 42.3151 172.047 43.1685C172.43 44.0219 172.627 44.9409 172.627 45.9146C172.627 46.8883 172.43 47.8402 172.047 48.7154C171.664 49.5907 171.128 50.3457 170.461 51.0021C169.783 51.6586 168.995 52.1728 168.076 52.5557C167.157 52.9277 166.172 53.1246 165.122 53.1246Z" fill="white"/>
<path fill-rule="evenodd" clip-rule="evenodd" d="M176.883 39.1953H178.174L187.091 49.1405H187.19V39.1953H188.196V53.123H187.66L177.999 42.0508H177.923V52.8057H176.883V39.1953Z" fill="white"/>
<path fill-rule="evenodd" clip-rule="evenodd" d="M28.2935 47.8863C27.8996 47.8316 27.451 47.7769 26.9477 47.7222C26.4444 47.6566 25.7552 47.58 24.8689 47.4706C23.9937 47.3721 23.3044 47.2737 22.8011 47.1971C22.4291 47.1314 21.9149 47.033 21.2584 46.9345C20.602 46.8251 19.9893 46.7266 19.4203 46.6281C18.8514 46.5406 18.2934 46.4422 17.7245 46.3656C17.1008 46.5406 16.5538 46.6938 16.0942 46.836C15.6347 46.9783 15.1533 47.1424 14.65 47.3284C14.1358 47.5144 13.6763 47.7113 13.2605 47.8863C14.1796 47.9082 15.033 47.9848 15.8317 48.138C16.5757 48.2474 18.0308 48.5209 20.2081 48.9585C22.2759 49.3852 23.742 49.5931 24.5954 49.5931C25.5911 49.5931 26.3897 49.4509 26.9806 49.1774C27.5714 48.9039 28.009 48.4662 28.2935 47.8754V47.8863ZM24.3328 43.7726H23.9499C22.7136 43.7726 21.3241 43.6194 19.7814 43.3131C19.1577 43.1709 17.9652 42.9302 16.1927 42.5691C15.5144 42.4269 14.6172 42.3503 13.5121 42.3503C12.5712 42.3503 11.7944 42.4816 11.1817 42.7442C10.569 43.0068 10.0001 43.4553 9.4749 44.079C10.0548 44.1227 10.6565 44.1665 11.2911 44.2321C11.9366 44.2868 12.4509 44.3306 12.8448 44.3743C13.2386 44.4072 13.6216 44.4619 13.9826 44.5166C14.5953 44.6041 15.1642 44.6916 15.7004 44.7682C16.2365 44.8448 16.7835 44.9214 17.3415 44.998C17.8995 45.0746 18.4575 45.1621 19.0046 45.2387C19.5735 45.1293 20.4488 44.8995 21.6523 44.5713C22.8449 44.2321 23.7311 43.9695 24.311 43.7835L24.3328 43.7726ZM28.5014 46.8688C28.2716 46.0702 27.834 45.6653 27.1994 45.6653C26.9915 45.6653 26.7399 45.7529 26.4554 45.917C26.4882 45.5778 26.5648 45.3043 26.6633 45.0964C26.7727 44.8886 26.9587 44.6588 27.2213 44.4181C28.3154 44.6698 28.9281 45.5012 29.0594 46.9017L29.5627 46.9892C31.16 47.219 32.5496 47.3284 33.7421 47.3284C35.1426 47.3284 36.2476 47.1752 37.0354 46.8688C37.8341 46.5625 38.2279 46.1358 38.2279 45.5997C38.2279 45.3262 38.1185 45.0964 37.8888 44.9214C37.6699 44.7463 37.3855 44.6588 37.0463 44.6588C36.9478 44.6588 36.7837 44.6807 36.543 44.7135C36.9041 44.2759 37.3308 43.9148 37.8231 43.6304C38.3155 43.7835 38.6765 43.9805 38.8954 44.2212C39.1142 44.4619 39.2236 44.7682 39.2236 45.1511C39.2236 45.7638 38.9282 46.3109 38.3374 46.7813C37.7465 47.2408 36.9041 47.6019 35.81 47.8535C34.7159 48.1051 33.4248 48.2364 31.9478 48.2364C31.171 48.2364 30.1535 48.1599 28.8952 48.0176C28.6655 48.6085 28.2826 49.0789 27.7464 49.4399C26.6195 50.1839 25.2628 50.5668 23.6873 50.5668C22.8011 50.5668 21.8602 50.4903 20.8645 50.3371C19.8689 50.1839 18.2168 49.8666 15.9082 49.3853C13.9717 48.9586 12.6369 48.7397 11.9257 48.7178C11.4334 48.7178 11.0504 48.8492 10.7878 49.1117C10.5253 49.3743 10.3393 49.7901 10.2408 50.3809C10.022 50.1511 9.87973 49.9761 9.82503 49.8666C9.75938 49.7463 9.70467 49.5493 9.64997 49.2649C9.87973 48.9367 10.1752 48.6522 10.5581 48.4115C10.941 48.1708 11.5209 47.8863 12.3087 47.5581C13.8404 46.9673 15.208 46.5187 16.4115 46.2124C13.173 45.6216 10.6784 45.2606 8.91693 45.1402C8.91693 45.6325 9.0701 46.0045 9.38739 46.2781C9.70468 46.5516 10.1423 46.6938 10.7003 46.6938C10.5034 46.9564 10.3174 47.1424 10.1642 47.2518C10.011 47.3612 9.73752 47.5034 9.36552 47.6566C8.56683 47.219 8.162 46.5735 8.162 45.7201C8.162 45.6107 8.18389 45.4028 8.2386 45.0746C7.11167 45.0199 6.05039 44.998 5.05475 44.998C3.57771 44.998 2.54924 45.0965 1.99124 45.2824C1.63019 45.4137 1.33479 45.5888 1.11597 45.8295C0.897153 46.0592 0.787756 46.2999 0.787756 46.5516C0.787756 46.8032 0.886202 46.9892 1.0722 47.1424C1.2582 47.2955 1.50985 47.3721 1.83809 47.3721C2.12255 47.3721 2.43984 47.3065 2.78995 47.1643C2.62583 47.5253 2.45077 47.7988 2.26477 48.0067C2.07877 48.2146 1.81618 48.4334 1.47701 48.6632C0.995607 48.5537 0.634553 48.3568 0.382909 48.0505C0.131266 47.7441 0 47.3612 0 46.8907C0 46.0811 0.426692 45.4356 1.29103 44.9652C1.90373 44.626 2.61488 44.3853 3.42452 44.2431C4.23415 44.1008 5.29546 44.0242 6.63026 44.0242C7.03508 44.0242 7.38518 44.0242 7.71341 44.0242C8.0307 44.0242 8.38083 44.0352 8.75283 44.0461C9.13576 43.5647 9.54055 43.149 9.95631 42.8098C10.3721 42.4706 10.8425 42.1971 11.3568 41.9674C11.871 41.7376 12.429 41.5845 13.0526 41.486C13.6653 41.3875 14.3327 41.3438 15.0658 41.3438C16.3568 41.3438 18.1511 41.5735 20.4488 42.0221C21.9149 42.3284 23.1184 42.5472 24.0812 42.6894C24.4969 42.7551 24.9674 42.7879 25.5035 42.7879C26.7618 42.7879 27.4839 42.3722 27.6917 41.5407L28.4904 42.0002C28.3701 42.2847 28.1841 42.5254 27.9543 42.7223C27.7136 42.9192 27.3307 43.149 26.8055 43.4006C26.1491 43.707 25.23 44.0571 24.0265 44.44C22.8339 44.8339 21.6414 45.173 20.4707 45.4575C22.5385 45.8404 23.8186 46.0702 24.3219 46.1467C24.7705 46.2233 25.4379 46.3327 26.3132 46.4859C27.1885 46.6281 27.9105 46.7594 28.4904 46.8688H28.5014Z" fill="white"/>
<path fill-rule="evenodd" clip-rule="evenodd" d="M222.048 47.8816C221.654 47.8269 221.206 47.7722 220.702 47.7175C220.199 47.6519 219.51 47.5753 218.624 47.4659C217.748 47.3674 217.059 47.269 216.567 47.1924C216.195 47.1267 215.68 47.0282 215.024 46.9298C214.368 46.8204 213.755 46.7219 213.186 46.6344C212.617 46.5469 212.059 46.4484 211.49 46.3718C210.866 46.5469 210.319 46.7 209.86 46.8423C209.4 46.9845 208.919 47.1486 208.416 47.3346C207.901 47.5206 207.442 47.7066 207.026 47.8926C207.945 47.9145 208.798 47.9911 209.597 48.1442C210.341 48.2427 211.796 48.5272 213.974 48.9648C216.041 49.3915 217.508 49.5993 218.361 49.5993C219.357 49.5993 220.155 49.4571 220.746 49.1836C221.337 48.9101 221.775 48.4724 222.059 47.8816H222.048ZM218.087 43.7679H217.705C216.468 43.7679 215.079 43.6147 213.536 43.3084C212.912 43.1661 211.72 42.9255 209.947 42.5644C209.269 42.4222 208.372 42.3456 207.267 42.3456C206.326 42.3456 205.549 42.4769 204.936 42.7395C204.324 43.002 203.755 43.4506 203.23 44.0742C203.798 44.118 204.411 44.1618 205.046 44.2274C205.691 44.2821 206.205 44.3259 206.599 44.3587C206.993 44.3915 207.376 44.4462 207.737 44.5009C208.35 44.5884 208.919 44.676 209.455 44.7526C209.991 44.8292 210.538 44.9057 211.096 44.9823C211.654 45.0589 212.212 45.1355 212.759 45.2121C213.328 45.1027 214.203 44.8729 215.407 44.5447C216.599 44.2055 217.486 43.9429 218.066 43.7569L218.087 43.7679ZM222.256 46.8641C222.026 46.0655 221.589 45.6606 220.954 45.6606C220.746 45.6606 220.494 45.7482 220.21 45.9123C220.243 45.5731 220.319 45.2996 220.418 45.0917C220.527 44.8839 220.713 44.6541 220.976 44.4134C222.07 44.665 222.683 45.4965 222.814 46.897L223.328 46.9845C224.926 47.2143 226.315 47.3237 227.508 47.3237C228.908 47.3237 230.013 47.1705 230.801 46.8641C231.6 46.5578 231.994 46.1311 231.994 45.595C231.994 45.3215 231.884 45.0917 231.665 44.9167C231.446 44.7416 231.162 44.6541 230.823 44.6541C230.724 44.6541 230.56 44.676 230.32 44.7088C230.67 44.2712 231.107 43.9101 231.6 43.6257C232.092 43.7788 232.453 43.9758 232.672 44.2165C232.891 44.4572 233 44.7635 233 45.1464C233 45.7591 232.705 46.3062 232.114 46.7766C231.523 47.2471 230.681 47.6081 229.586 47.8598C228.492 48.1114 227.201 48.2427 225.724 48.2427C224.947 48.2427 223.93 48.1661 222.672 48.0239C222.442 48.6147 222.059 49.0961 221.523 49.4462C220.396 50.1902 219.039 50.5731 217.464 50.5731C216.578 50.5731 215.637 50.4965 214.641 50.3433C213.645 50.1901 211.993 49.8729 209.685 49.3915C207.748 48.9648 206.413 48.746 205.702 48.7241C205.21 48.7241 204.827 48.8554 204.564 49.1179C204.302 49.3805 204.116 49.8072 204.017 50.3871C203.798 50.1573 203.656 49.9932 203.602 49.8729C203.536 49.7525 203.481 49.5556 203.426 49.2711C203.656 48.9429 203.952 48.6584 204.335 48.4177C204.717 48.177 205.297 47.8926 206.096 47.5644C207.628 46.9736 208.995 46.525 210.199 46.2186C206.96 45.6278 204.466 45.2668 202.704 45.1464C202.704 45.6388 202.858 46.0108 203.186 46.2952C203.503 46.5687 203.941 46.711 204.499 46.711C204.302 46.9736 204.116 47.1595 203.963 47.2689C203.809 47.3783 203.536 47.5097 203.164 47.6738C202.365 47.2361 201.96 46.5906 201.96 45.7372C201.96 45.6388 201.982 45.42 202.037 45.1027C200.91 45.048 199.849 45.0261 198.853 45.0261C197.376 45.0261 196.348 45.1246 195.79 45.3106C195.429 45.4418 195.133 45.6278 194.914 45.8576C194.696 46.0874 194.586 46.3281 194.586 46.5797C194.586 46.8313 194.685 47.0173 194.871 47.1705C195.057 47.3236 195.308 47.4003 195.636 47.4003C195.921 47.4003 196.238 47.3346 196.588 47.1924C196.424 47.5534 196.249 47.8269 196.063 48.0348C195.877 48.2427 195.615 48.4615 195.275 48.6913C194.794 48.5819 194.433 48.3849 194.181 48.0786C193.93 47.7722 193.798 47.3893 193.798 46.9189C193.798 46.1092 194.225 45.4747 195.089 45.0042C195.702 44.6651 196.413 44.4244 197.223 44.2821C198.033 44.1399 199.094 44.0633 200.429 44.0633C200.833 44.0633 201.184 44.0633 201.512 44.0633C201.829 44.0633 202.179 44.0743 202.551 44.0852C202.934 43.5929 203.339 43.188 203.755 42.8489C204.17 42.5097 204.641 42.2362 205.155 42.0064C205.669 41.7767 206.227 41.6235 206.851 41.525C207.464 41.4265 208.142 41.3828 208.864 41.3828C210.155 41.3828 211.939 41.6126 214.247 42.0611C215.713 42.3675 216.917 42.5863 217.88 42.7285C218.284 42.7942 218.766 42.827 219.302 42.827C220.56 42.827 221.282 42.4112 221.49 41.5797L222.289 42.0392C222.168 42.3128 221.993 42.5644 221.753 42.7613C221.512 42.9692 221.129 43.188 220.615 43.4397C219.958 43.746 219.039 44.0961 217.836 44.49C216.643 44.8839 215.451 45.223 214.28 45.5075C216.348 45.8904 217.628 46.1202 218.131 46.1968C218.58 46.2733 219.247 46.3827 220.122 46.525C220.998 46.6672 221.72 46.7985 222.3 46.9079L222.256 46.8641Z" fill="white"/>
<path fill-rule="evenodd" clip-rule="evenodd" d="M191.14 40.355C191.052 40.3003 190.899 40.2784 190.702 40.2784H190.396V41.0224H190.724C190.877 41.0224 190.987 41.0115 191.063 40.9786C191.206 40.9239 191.271 40.8145 191.271 40.6614C191.271 40.5082 191.227 40.4097 191.14 40.366V40.355ZM190.746 40.0268C190.998 40.0268 191.184 40.0487 191.304 40.1034C191.512 40.1909 191.621 40.366 191.621 40.6176C191.621 40.8036 191.556 40.9349 191.424 41.0224C191.359 41.0662 191.249 41.099 191.129 41.1209C191.293 41.1428 191.403 41.2084 191.479 41.3178C191.556 41.4272 191.589 41.5366 191.589 41.6351V41.7883C191.589 41.7883 191.589 41.8867 191.589 41.9414C191.589 41.9961 191.589 42.029 191.61 42.0508V42.0727H191.282C191.282 42.0727 191.282 42.0618 191.282 42.0508C191.282 42.0508 191.282 42.0399 191.282 42.029V41.9633V41.7992C191.282 41.5585 191.217 41.4053 191.085 41.3287C191.009 41.285 190.877 41.2631 190.68 41.2631H190.396V42.0727H190.035V40.0268H190.757H190.746ZM189.652 39.9174C189.969 39.6001 190.341 39.4469 190.79 39.4469C191.238 39.4469 191.61 39.6001 191.928 39.9174C192.245 40.2347 192.398 40.6067 192.398 41.0552C192.398 41.5038 192.245 41.8868 191.928 42.204C191.61 42.5213 191.238 42.6745 190.79 42.6745C190.341 42.6745 189.969 42.5213 189.652 42.204C189.346 41.8868 189.182 41.5038 189.182 41.0552C189.182 40.6067 189.335 40.2347 189.652 39.9174ZM192.103 42.3791C191.742 42.7401 191.293 42.9261 190.779 42.9261C190.265 42.9261 189.827 42.7401 189.455 42.3791C189.094 42.018 188.919 41.5694 188.919 41.0552C188.919 40.541 189.105 40.1034 189.466 39.7424C189.827 39.3813 190.265 39.1953 190.779 39.1953C191.293 39.1953 191.742 39.3813 192.103 39.7424C192.464 40.1034 192.65 40.541 192.65 41.0552C192.65 41.5694 192.464 42.018 192.103 42.3791Z" fill="white"/>
<path fill-rule="evenodd" clip-rule="evenodd" d="M53.5563 70.3221C53.4578 69.961 53.3046 69.6438 53.1077 69.3593C52.8998 69.0749 52.6482 68.856 52.3309 68.6919C52.0136 68.5278 51.6416 68.4403 51.2149 68.4403C50.7882 68.4403 50.3834 68.5278 50.077 68.7029C49.7597 68.8779 49.5081 69.1077 49.3111 69.3922C49.1142 69.6766 48.972 70.0048 48.8844 70.3659C48.7969 70.7269 48.7532 71.0989 48.7532 71.4709C48.7532 71.8648 48.7969 72.2477 48.8954 72.6197C48.9938 72.9917 49.1361 73.3199 49.3439 73.5934C49.5518 73.8779 49.8144 74.0967 50.1317 74.2717C50.449 74.4468 50.8429 74.5343 51.3024 74.5343C51.7619 74.5343 52.1448 74.4468 52.4512 74.2717C52.7575 74.0967 53.0092 73.856 53.1952 73.5715C53.3812 73.2761 53.5125 72.9479 53.6 72.5759C53.6876 72.2039 53.7204 71.821 53.7204 71.4162C53.7204 71.0442 53.6657 70.6722 53.5672 70.3112L53.5563 70.3221ZM48.786 64.3812V68.5497H48.8188C49.0376 68.1011 49.3768 67.7729 49.8473 67.576C50.3177 67.3681 50.832 67.2696 51.3899 67.2696C52.0136 67.2696 52.5606 67.379 53.0202 67.6088C53.4797 67.8386 53.8736 68.1449 54.1799 68.5388C54.4862 68.9326 54.716 69.3812 54.8801 69.8954C55.0333 70.4096 55.1099 70.9457 55.1099 71.5147C55.1099 72.0836 55.0333 72.6306 54.8801 73.1339C54.7269 73.6481 54.4972 74.0857 54.1909 74.4687C53.8845 74.8516 53.5016 75.147 53.0311 75.3658C52.5716 75.5846 52.0245 75.694 51.4118 75.694C51.2149 75.694 50.996 75.6722 50.7444 75.6284C50.5037 75.5846 50.263 75.519 50.0223 75.4205C49.7816 75.322 49.5518 75.2017 49.3439 75.0376C49.1361 74.8735 48.9501 74.6765 48.8078 74.4358H48.775V75.5081H47.4512V64.3594H48.775L48.786 64.3812Z" fill="white"/>
<path fill-rule="evenodd" clip-rule="evenodd" d="M59.8477 76.6106C59.6945 77.0044 59.5414 77.3436 59.3882 77.6062C59.235 77.8797 59.0709 78.0985 58.8849 78.2736C58.6989 78.4486 58.5019 78.569 58.2722 78.6455C58.0534 78.7221 57.7908 78.7659 57.4954 78.7659C57.3422 78.7659 57.1781 78.755 57.0249 78.7331C56.8717 78.7112 56.7186 78.6784 56.5763 78.6237V77.4092C56.6857 77.4639 56.828 77.5077 56.9702 77.5406C57.1234 77.5734 57.2437 77.5952 57.3531 77.5952C57.6267 77.5952 57.8455 77.5296 58.0315 77.3983C58.2175 77.267 58.3488 77.081 58.4472 76.8403L58.9943 75.4837L55.7886 67.4531H57.2875L59.6508 74.0613H59.6836L61.9484 67.4531H63.3488L59.8367 76.5996L59.8477 76.6106Z" fill="white"/>
<path fill-rule="evenodd" clip-rule="evenodd" d="M74.2456 74.2608C74.9021 74.2608 75.4163 74.0857 75.7883 73.7247C76.1603 73.3746 76.3463 72.8823 76.3463 72.2586C76.3463 71.8976 76.2807 71.5912 76.1384 71.3505C76.0071 71.1098 75.8211 70.9239 75.6023 70.7816C75.3835 70.6394 75.1209 70.5409 74.8255 70.4862C74.5301 70.4315 74.2347 70.3987 73.9174 70.3987H70.5257V74.2608H74.2456ZM73.4907 69.1514C74.3331 69.1514 74.9458 68.9983 75.3069 68.7029C75.6789 68.4075 75.8649 67.9589 75.8649 67.3681C75.8649 66.9742 75.7992 66.6569 75.6789 66.4272C75.5585 66.1974 75.3835 66.0224 75.1647 65.8911C74.9458 65.7707 74.6942 65.6832 74.4097 65.6504C74.1253 65.6176 73.8189 65.5957 73.4907 65.5957H70.5257V69.1405H73.4907V69.1514ZM73.0859 64.3594C73.3266 64.3594 73.5782 64.3594 73.8627 64.3594C74.1362 64.3594 74.4097 64.3812 74.6832 64.4031C74.9568 64.425 75.2084 64.4688 75.4382 64.5235C75.6679 64.5782 75.8758 64.6548 76.04 64.7532C76.401 64.972 76.7183 65.2784 76.9699 65.6613C77.2216 66.0442 77.3529 66.5256 77.3529 67.0836C77.3529 67.6744 77.2106 68.1887 76.9262 68.6263C76.6417 69.053 76.2259 69.3812 75.7008 69.5891V69.6219C76.39 69.7641 76.9152 70.0814 77.2763 70.5628C77.6373 71.0442 77.8233 71.6241 77.8233 72.3133C77.8233 72.7181 77.7467 73.112 77.6045 73.4949C77.4623 73.8778 77.2435 74.217 76.959 74.5234C76.6745 74.8297 76.3135 75.0595 75.8977 75.2455C75.471 75.4314 74.9896 75.519 74.4425 75.519H69.0596V64.3703H73.1077L73.0859 64.3594Z" fill="white"/>
<path fill-rule="evenodd" clip-rule="evenodd" d="M87.4408 64.375V65.6223H81.2263V69.1671H87.025V70.4143H81.2263V74.2765H87.4846V75.5237H79.7383V64.375H87.4408Z" fill="white"/>
<path fill-rule="evenodd" clip-rule="evenodd" d="M94.8693 65.9021C94.3769 65.5411 93.7423 65.366 92.9765 65.366C92.6592 65.366 92.3528 65.3988 92.0574 65.4645C91.7511 65.5301 91.4885 65.6286 91.2478 65.7817C91.018 65.924 90.8211 66.1209 90.6898 66.3726C90.5476 66.6133 90.4819 66.9196 90.4819 67.2916C90.4819 67.6307 90.5804 67.9152 90.7883 68.1231C90.9961 68.3419 91.2588 68.506 91.5979 68.6482C91.9371 68.7795 92.32 68.8999 92.7467 68.9874C93.1734 69.075 93.6111 69.1734 94.0487 69.2719C94.4863 69.3813 94.924 69.5016 95.3507 69.6438C95.7774 69.7861 96.1603 69.9721 96.4995 70.2128C96.8387 70.4535 97.1122 70.7489 97.3091 71.1209C97.517 71.4819 97.6155 71.9414 97.6155 72.4994C97.6155 73.0902 97.4842 73.6044 97.2216 74.0202C96.959 74.4469 96.6199 74.786 96.2041 75.0486C95.7883 75.3112 95.3179 75.5081 94.8036 75.6285C94.2894 75.7488 93.7752 75.8035 93.261 75.8035C92.6373 75.8035 92.0465 75.727 91.4885 75.5738C90.9305 75.4206 90.4382 75.1799 90.0224 74.8626C89.5957 74.5454 89.2675 74.1405 89.0268 73.6482C88.7861 73.1559 88.6548 72.5651 88.6548 71.8867H90.0552C90.0552 72.3572 90.1428 72.762 90.3288 73.1011C90.5148 73.4403 90.7555 73.7138 91.0509 73.9327C91.3463 74.1515 91.6964 74.3156 92.0903 74.4141C92.4841 74.5235 92.889 74.5672 93.3047 74.5672C93.633 74.5672 93.9721 74.5344 94.3113 74.4687C94.6505 74.4031 94.9568 74.3046 95.2303 74.1515C95.5038 73.9983 95.7227 73.7904 95.8868 73.5388C96.0509 73.2762 96.1384 72.948 96.1384 72.5432C96.1384 72.1603 96.04 71.843 95.8321 71.6023C95.6242 71.3616 95.3616 71.1646 95.0224 71.0115C94.6833 70.8583 94.3003 70.7379 93.8736 70.6395C93.4469 70.541 93.0093 70.4535 92.5717 70.355C92.134 70.2566 91.6964 70.1362 91.2697 70.0158C90.843 69.8845 90.4601 69.7095 90.1209 69.5016C89.7817 69.2828 89.5082 69.0093 89.3112 68.6701C89.1033 68.331 89.0049 67.9043 89.0049 67.401C89.0049 66.843 89.1143 66.3507 89.344 65.9459C89.5738 65.5301 89.8802 65.1909 90.2631 64.9284C90.6461 64.6658 91.0727 64.4689 91.5542 64.3376C92.0356 64.2063 92.5388 64.1406 93.0421 64.1406C93.6111 64.1406 94.1472 64.2063 94.6395 64.3485C95.1319 64.4798 95.5586 64.6986 95.9306 64.994C96.3026 65.2894 96.587 65.6505 96.8058 66.099C97.0137 66.5367 97.1341 67.0728 97.156 67.6855H95.7555C95.668 66.8868 95.3835 66.3069 94.8912 65.9459L94.8693 65.9021Z" fill="white"/>
<path fill-rule="evenodd" clip-rule="evenodd" d="M98.2173 65.6223V64.375H107.134V65.6223H103.414V75.5237H101.937V65.6223H98.2173Z" fill="white"/>
<path fill-rule="evenodd" clip-rule="evenodd" d="M121.238 75.5237L118.688 66.1474H118.667L116.085 75.5237H114.542L111.675 64.375H113.196L115.384 73.6419H115.417L117.912 64.375H119.52L121.993 73.6419H122.015L124.279 64.375H125.767L122.78 75.5237H121.238Z" fill="white"/>
<path fill-rule="evenodd" clip-rule="evenodd" d="M134.87 64.375V65.6223H128.656V69.1671H134.454V70.4143H128.656V74.2765H134.925V75.5237H127.179V64.375H134.87Z" fill="white"/>
<path fill-rule="evenodd" clip-rule="evenodd" d="M142.299 65.9021C141.806 65.5411 141.172 65.366 140.406 65.366C140.1 65.366 139.782 65.3988 139.487 65.4645C139.18 65.5301 138.918 65.6286 138.677 65.7817C138.447 65.924 138.251 66.1209 138.119 66.3726C137.977 66.6133 137.911 66.9196 137.911 67.2916C137.911 67.6307 138.01 67.9152 138.218 68.1231C138.426 68.3419 138.688 68.506 139.027 68.6482C139.366 68.7795 139.749 68.8999 140.176 68.9874C140.603 69.075 141.04 69.1734 141.478 69.2719C141.916 69.3813 142.353 69.5016 142.78 69.6438C143.207 69.7861 143.59 69.9721 143.929 70.2128C144.268 70.4535 144.542 70.7489 144.739 71.1209C144.946 71.4819 145.045 71.9414 145.045 72.4994C145.045 73.0902 144.914 73.6044 144.651 74.0202C144.388 74.4469 144.049 74.786 143.623 75.0486C143.207 75.3112 142.736 75.5081 142.222 75.6285C141.708 75.7488 141.194 75.8035 140.679 75.8035C140.056 75.8035 139.465 75.727 138.907 75.5738C138.349 75.4206 137.857 75.1799 137.441 74.8626C137.014 74.5454 136.686 74.1405 136.445 73.6482C136.205 73.1559 136.073 72.5651 136.073 71.8867H137.474C137.474 72.3572 137.561 72.762 137.747 73.1011C137.933 73.4403 138.163 73.7138 138.469 73.9327C138.765 74.1515 139.115 74.3156 139.509 74.4141C139.903 74.5235 140.307 74.5672 140.723 74.5672C141.051 74.5672 141.391 74.5344 141.73 74.4687C142.069 74.4031 142.375 74.3046 142.649 74.1515C142.922 73.9983 143.141 73.7904 143.305 73.5388C143.469 73.2762 143.557 72.948 143.557 72.5432C143.557 72.1603 143.458 71.843 143.251 71.6023C143.043 71.3616 142.78 71.1646 142.441 71.0115C142.102 70.8583 141.719 70.7379 141.292 70.6395C140.865 70.541 140.428 70.4535 139.99 70.355C139.552 70.2566 139.115 70.1362 138.688 70.0158C138.261 69.8845 137.879 69.7095 137.539 69.5016C137.2 69.2828 136.927 69.0093 136.73 68.6701C136.522 68.331 136.423 67.9043 136.423 67.401C136.423 66.843 136.544 66.3507 136.763 65.9459C136.992 65.5301 137.299 65.1909 137.671 64.9284C138.054 64.6658 138.48 64.4689 138.962 64.3376C139.443 64.2063 139.946 64.1406 140.45 64.1406C141.019 64.1406 141.555 64.2063 142.047 64.3485C142.539 64.4798 142.966 64.6986 143.338 64.994C143.71 65.2894 143.995 65.6505 144.213 66.099C144.432 66.5367 144.542 67.0728 144.563 67.6855H143.163C143.075 66.8868 142.791 66.3069 142.299 65.9459V65.9021Z" fill="white"/>
<path fill-rule="evenodd" clip-rule="evenodd" d="M145.647 65.6223V64.375H154.564V65.6223H150.855V75.5237H149.367V65.6223H145.647Z" fill="white"/>
<path fill-rule="evenodd" clip-rule="evenodd" d="M163.503 64.375V65.6223H157.288V69.1671H163.076V70.4143H157.288V74.2765H163.547V75.5237H155.8V64.375H163.503Z" fill="white"/>
<path fill-rule="evenodd" clip-rule="evenodd" d="M170.899 69.4249C171.216 69.3702 171.49 69.2718 171.719 69.1186C171.949 68.9654 172.146 68.7685 172.277 68.5059C172.42 68.2543 172.485 67.9151 172.485 67.5103C172.485 66.9523 172.332 66.4928 172.015 66.1318C171.697 65.7817 171.194 65.6066 170.505 65.6066H166.818V69.4906H169.914C170.253 69.4906 170.581 69.4687 170.899 69.414V69.4249ZM170.581 64.3594C171.643 64.3594 172.474 64.6219 173.076 65.1362C173.678 65.6613 173.973 66.3725 173.973 67.2806C173.973 67.9589 173.82 68.5497 173.514 69.0639C173.207 69.5781 172.715 69.9173 172.037 70.1142V70.147C172.365 70.2127 172.627 70.3112 172.824 70.4643C173.032 70.6066 173.185 70.7816 173.306 70.9895C173.426 71.1974 173.514 71.4162 173.568 71.6678C173.623 71.9195 173.667 72.182 173.7 72.4446C173.722 72.7181 173.732 72.9917 173.743 73.2761C173.743 73.5606 173.776 73.8341 173.82 74.1076C173.864 74.3811 173.918 74.6328 173.995 74.8844C174.072 75.1251 174.192 75.3439 174.345 75.5299H172.693C172.595 75.4205 172.518 75.2564 172.485 75.0595C172.452 74.8625 172.431 74.6437 172.42 74.3921C172.42 74.1514 172.398 73.8888 172.387 73.6043C172.387 73.3199 172.343 73.0463 172.288 72.7728C172.245 72.4993 172.19 72.2477 172.135 71.996C172.069 71.7553 171.971 71.5365 171.84 71.3505C171.708 71.1645 171.522 71.0223 171.304 70.9129C171.085 70.8035 170.789 70.7488 170.428 70.7488H166.807V75.508H165.319V64.3594H170.571H170.581Z" fill="white"/>
<path fill-rule="evenodd" clip-rule="evenodd" d="M177.606 64.375L183.481 73.4121H183.503V64.375H184.914V75.5237H183.284L177.464 66.5741H177.431V75.5237H176.03V64.375H177.606Z" fill="white"/>
<path d="M231.731 59.3047H0.952148V59.6001H231.731V59.3047Z" fill="white"/>
</svg>
