<svg width="191" height="40" viewBox="0 0 191 40" fill="none" xmlns="http://www.w3.org/2000/svg">
<g clip-path="url(#clip0_2801_16277)">
<path d="M38.5381 31.07L38.7292 31.5298C39.2642 31.6293 39.7993 31.7194 40.3248 31.8142L40.4012 31.3639L38.5381 31.07ZM40.449 18.9643L40.0764 21.1968C40.1241 21.1305 40.1767 21.0594 40.234 20.993C41.6242 19.4241 42.0064 17.457 42.0064 17.457C41.7197 17.7746 40.9458 18.5093 40.449 18.9691M60.9913 33.0134L60.4419 33.0229C59.9498 33.0323 59.4482 33.0466 58.9275 33.0466H58.8367L58.937 33.6248V33.6343C59.2093 33.6343 59.4816 33.6248 59.7539 33.6201H59.8829C60.1934 33.6201 60.5087 33.6106 60.8145 33.6059C60.9148 33.6059 61.0056 33.5964 61.0964 33.5964L60.996 33.0181L60.9913 33.0134ZM49.6214 32.6626L49.4733 33.0229L49.3061 32.6247C48.6325 32.5489 47.9398 32.4635 47.2327 32.364L46.8792 32.3166L47.1515 32.9518C48.6086 33.1461 50.0895 33.3215 51.5896 33.44L51.8284 32.8664L51.6374 32.8522C50.9685 32.7953 50.3045 32.7385 49.6214 32.6626Z" fill="#293880"/>
<path d="M64.7225 13.1289H67.9854V33.8991L66.8628 33.9655C66.3659 33.9939 65.8595 34.0271 65.3388 34.0508L64.7178 34.0793V13.1289H64.7225Z" fill="#293880"/>
<path d="M71.3342 33.2119C69.9345 31.1358 69.2227 28.7374 69.2227 26.0925C69.2227 22.5281 70.5077 19.4425 73.0445 16.9208C75.5812 14.4039 78.6912 13.1289 82.2837 13.1289C85.8762 13.1289 88.991 14.4039 91.5373 16.9113C92.8128 18.1911 93.7778 19.6226 94.4132 21.1678L94.6186 21.6749L91.6758 23.1301L91.437 22.5329C90.9545 21.3242 90.2092 20.2056 89.2203 19.2007C87.2855 17.3 85.0115 16.371 82.2837 16.371C79.5559 16.371 77.258 17.3285 75.3519 19.2197C73.4458 21.1062 72.4808 23.4192 72.4808 26.0925C72.4808 28.4577 73.1926 30.4627 74.6592 32.2212L75.3376 33.0365L74.2818 33.1787C73.5079 33.283 72.7196 33.3825 71.8884 33.4725L71.5301 33.5105L71.3294 33.2119H71.3342ZM91.5134 29.4673C91.5994 29.2303 91.6758 28.9886 91.7427 28.7421H81.6913V25.5048H95.3495V26.0925C95.3495 27.3249 95.1967 28.5004 94.9005 29.5811L94.7906 29.9745L94.3798 30.0124C93.6058 30.0835 92.8606 30.1594 92.1392 30.2494L91.179 30.3679L91.5086 29.4673H91.5134Z" fill="#293880"/>
<path d="M121.543 30.3395C120.87 30.2684 120.163 30.1973 119.422 30.1309L118.658 30.0646L118.916 29.3488C119.274 28.3582 119.451 27.2633 119.451 26.0925C119.451 23.4192 118.486 21.1062 116.58 19.2197C114.673 17.3285 112.342 16.371 109.648 16.371C106.953 16.371 104.651 17.3 102.716 19.2197C100.81 21.1156 99.84 23.424 99.84 26.0925C99.84 27.0689 99.9738 28.0264 100.237 28.927L100.447 29.6522L99.6871 29.6806C98.9562 29.7043 98.2492 29.747 97.5708 29.7849L97.0835 29.8133L96.9641 29.3394C96.7061 28.3298 96.5771 27.2396 96.5771 26.0925C96.5771 22.5281 97.8622 19.4425 100.399 16.9208C102.936 14.4039 106.046 13.1289 109.648 13.1289C113.25 13.1289 116.35 14.4039 118.887 16.9208C121.424 19.4425 122.709 22.5281 122.709 26.0925C122.709 27.4481 122.527 28.7374 122.164 29.9271L122.021 30.3964L121.534 30.3442L121.543 30.3395Z" fill="#293880"/>
<path d="M61.5887 33.0003L60.9963 33.0145L60.4469 33.024C59.9548 33.0334 59.4484 33.0477 58.9325 33.0477H58.8417L58.2398 33.0571L56.5534 23.2361L52.4593 32.9244H52.4497L51.8335 32.8676L51.6424 32.8533C50.9736 32.7965 50.3095 32.7396 49.6264 32.6637C49.5213 32.6495 49.4114 32.64 49.3159 32.6211C48.6423 32.55 47.9496 32.4599 47.2425 32.3604L46.889 32.313L46.2059 32.2229L42.4079 23.2361L40.9986 31.4645L40.4063 31.365L38.5479 31.0711L37.8647 30.9574L39.0829 23.639L39.3314 22.1175V22.1032C39.5798 21.8189 39.833 21.5155 40.091 21.1979C40.1387 21.1316 40.1913 21.0605 40.2486 20.9941C41.6388 19.4252 42.021 17.4581 42.021 17.4581C41.7343 17.7757 40.9604 18.5104 40.4636 18.9702C40.2008 19.2072 40.0193 19.3778 40.0193 19.3778L39.7565 19.5816L40.1101 17.4676L41.1467 11.6328L43.3873 16.9842L49.4878 31.5025L55.598 16.9842L57.8194 11.6328L58.8656 17.4581L61.5982 33.005L61.5887 33.0003Z" fill="#293880"/>
<path d="M42.0066 17.454C42.0066 17.454 41.6292 19.421 40.2342 20.9899C40.1769 21.0563 40.1291 21.1274 40.0766 21.1937C39.8234 21.5113 39.5654 21.8147 39.3218 22.0991L39.7422 19.5727L40.0049 19.3689C40.0049 19.3689 40.1865 19.1982 40.4492 18.9612C40.9413 18.5015 41.7152 17.7668 42.0066 17.4492" fill="#293880"/>
<path d="M40.9936 31.4642L40.9077 31.924L40.8121 32.5022L40.5541 33.9574L40.1337 36.4885L39.1305 34.0285L38.3088 32.0425L37.855 30.957L38.5381 31.0708L40.4013 31.3647L40.9936 31.4642Z" fill="#0084AE"/>
<path d="M52.4545 32.9242L51.1694 35.9719L49.4735 40.0008L47.5483 35.4079L46.7313 33.4787L46.1963 32.2227L46.8794 32.3127L47.233 32.3601C47.94 32.4596 48.6327 32.5497 49.3063 32.6208C49.4066 32.6398 49.5117 32.6445 49.6168 32.6635C50.3 32.7346 50.9688 32.7914 51.6328 32.8531L51.8239 32.8673L52.4402 32.9242H52.4497H52.4545Z" fill="#0084AE"/>
<path d="M62.6492 39.0623H59.2669L58.4356 34.2324L58.2397 33.0569L58.8417 33.0474H58.9324C59.4532 33.0474 59.9548 33.0332 60.4468 33.0237L60.9962 33.0142L61.5886 33L61.794 34.1755L62.6492 39.0623Z" fill="#0084AE"/>
<path d="M67.9855 32.7188V39.0607H64.7227V32.8989L65.2912 32.8752C65.8119 32.8515 66.3135 32.8183 66.8055 32.7851L67.9855 32.7188Z" fill="#0084AE"/>
<path d="M82.2837 39.0559C78.6864 39.0559 75.5812 37.7809 73.0444 35.264C73.0349 35.2545 72.9967 35.2166 72.9967 35.2166C72.3613 34.5815 71.8023 33.9037 71.3342 33.2116L70.7896 32.4059L71.7593 32.2968C72.581 32.2068 73.3597 32.1073 74.1241 32.003H74.1623L74.4872 31.9982L74.6735 32.2163C74.8646 32.4533 75.0891 32.695 75.3566 32.9604C75.6719 33.2733 76.0159 33.5719 76.379 33.8515L76.5175 33.9511C78.1657 35.1834 80.1052 35.8091 82.2884 35.8091C85.021 35.8091 87.2902 34.8754 89.2298 32.951C89.6741 32.5054 90.0658 32.0551 90.4146 31.5716C90.8732 30.9081 91.2363 30.216 91.5181 29.4624L91.6423 29.1259L92.0006 29.0832C92.7363 28.9931 93.4911 28.9126 94.2794 28.8415L95.125 28.7656L94.9052 29.5809C94.6855 30.3962 94.3893 31.1688 94.0166 31.8845C93.4243 33.0837 92.5835 34.226 91.5277 35.2735C88.9909 37.7904 85.881 39.0654 82.2837 39.0654" fill="#0084AE"/>
<path d="M109.657 39.0574C106.055 39.0574 102.945 37.7824 100.409 35.2655C99.2573 34.1232 98.3591 32.8576 97.7381 31.5068C97.4085 30.8005 97.1601 30.0895 96.9737 29.3359L96.8018 28.6486L97.5136 28.6107C98.2015 28.5728 98.9133 28.5301 99.6538 28.5064L100.112 28.4922L100.241 28.9283C100.447 29.6155 100.719 30.2507 101.082 30.8716C101.512 31.6158 102.062 32.322 102.721 32.9714C104.656 34.891 106.92 35.8201 109.653 35.8201C112.385 35.8201 114.678 34.8626 116.58 32.9714C117.124 32.431 117.592 31.8528 117.975 31.2555C118.366 30.6583 118.682 30.0279 118.906 29.3643L119.059 28.9283L119.522 28.9709C120.268 29.0373 120.984 29.1084 121.663 29.1795L122.37 29.2553L122.169 29.9331C121.949 30.6773 121.648 31.393 121.29 32.0661C120.702 33.1989 119.895 34.2843 118.892 35.275C116.355 37.7919 113.25 39.0669 109.653 39.0669" fill="#0084AE"/>
<path d="M40.4492 18.9643C40.1865 19.2013 40.005 19.372 40.005 19.372L39.7422 19.5758L39.5702 19.7132C38.6721 20.41 37.7501 21.1162 36.8281 21.723C36.4268 21.9931 36.0542 22.2206 35.6768 22.4245C34.9124 22.8321 34.1862 23.2255 33.4123 23.5668C33.1926 23.6568 32.968 23.7469 32.7435 23.8275L25.0187 4.88684L23.0074 0L21.0392 4.88684L14.5517 20.7702C13.9115 20.6707 13.2857 20.6233 12.6838 20.6233C12.421 20.6233 12.163 20.6328 11.9194 20.647C10.1136 20.7371 8.29822 21.2016 6.49241 22.05C5.58473 22.4908 4.75349 22.9885 3.99868 23.5431C3.26776 24.0834 2.60849 24.6854 2.02089 25.3348H2.01134L1.98745 25.3679C1.94445 25.4153 1.90624 25.458 1.86324 25.5007L1.8728 25.5149L0.00488281 27.9227C0.00488281 27.9227 1.22309 27.1312 2.59894 26.3775L2.60849 26.3918C3.28209 26.0173 3.94135 25.6997 4.58628 25.4438C6.65484 24.5858 8.77595 24.1545 10.9018 24.1545C11.241 24.1545 11.5707 24.164 11.9051 24.1877C12.3111 24.2019 12.7029 24.2446 13.1089 24.3204L11.3557 28.6005L10.8684 29.795L11.7809 29.7618C12.7124 29.7286 13.7013 29.7144 14.7953 29.7144H15.1918L15.5215 28.9371L15.6887 28.5389L16.9499 25.5338L17.4849 25.7803C17.6903 25.8704 17.8958 25.9936 18.1107 26.1216C18.2445 26.2022 18.383 26.2875 18.5072 26.3491L19.0184 26.6524L19.6299 27.0127L20.2892 27.3966L20.9389 27.7142C22.5345 28.501 24.3069 28.8897 26.1843 28.8897C26.3324 28.8897 26.471 28.8897 26.6191 28.8802C27.5172 28.847 28.4631 28.7096 29.4376 28.4773C29.7577 28.3872 30.0635 28.2972 30.3692 28.1977L31.1288 30.051L31.6543 31.3355L31.9744 31.3923C32.6671 31.5156 33.3407 31.6388 34.0238 31.7621L36.1306 32.1365L35.6099 30.8473H35.6003L33.8853 26.624C34.8598 26.0505 35.844 25.3727 36.8758 24.5479L36.9188 24.5053C37.0526 24.3915 37.1816 24.2778 37.3058 24.164C37.9794 23.5668 38.6578 22.8747 39.3314 22.0974C39.5798 21.813 39.833 21.5097 40.0909 21.1921C40.1387 21.1257 40.1913 21.0546 40.2486 20.9883C41.6388 19.4194 42.0162 17.4523 42.0162 17.4523C41.7295 17.7699 40.9556 18.5046 40.4588 18.9643M28.9599 24.9129C28.2577 25.0267 27.5602 25.0788 26.877 25.0788H26.5952C25.0234 25.0124 23.5712 24.6522 22.2908 24.0171L21.7892 23.7658L20.7 23.1117L20.0599 22.742C19.9691 22.6946 19.8783 22.6425 19.7493 22.5524L19.5344 22.4387C19.3051 22.3012 19.0566 22.1685 18.7843 22.0453L18.2636 21.8414L23.017 10.205L29.022 24.9034C29.022 24.9034 28.979 24.9129 28.9647 24.9129" fill="#C66628"/>
<path d="M7.104 39.0142L11.351 28.6054L11.7332 28.5912C12.6743 28.5533 13.6727 28.5391 14.7859 28.5391H15.6792L14.4419 31.4683L11.265 39.0142H7.104Z" fill="#0084AE"/>
<path d="M34.764 39.0123L31.1094 30.0586L32.1604 30.2387C32.8531 30.3572 33.5362 30.4804 34.2146 30.6037L35.5952 30.8502L36.651 33.4334L38.9202 39.0075H34.764V39.0123Z" fill="#0084AE"/>
<path d="M143.906 26.7292C142.817 25.5442 141.259 24.6436 139.281 24.0512L137.318 23.4729C136.578 23.2359 135.971 22.9942 135.527 22.7429C134.394 22.1078 133.84 21.212 133.84 20.0128C133.84 18.9463 134.203 18.0884 134.958 17.3869C135.708 16.6806 136.606 16.3393 137.705 16.3393C138.804 16.3393 139.621 16.7138 140.371 17.4817C141.111 18.2448 141.474 19.1311 141.474 20.1881V20.7854H145.158V20.1881C145.158 18.131 144.422 16.382 142.97 14.9837C141.546 13.6186 139.774 12.9219 137.705 12.9219C135.636 12.9219 133.835 13.5949 132.388 14.9269C130.907 16.2919 130.157 18.0315 130.157 20.1076C130.157 22.1836 130.869 23.871 132.268 25.0228C132.842 25.4873 133.577 25.9092 134.447 26.2742C135.087 26.5538 135.942 26.8477 136.998 27.1558C137.781 27.3833 138.436 27.6061 138.938 27.8099C139.597 28.0895 140.146 28.3976 140.567 28.72C141.584 29.502 142.076 30.5116 142.076 31.8056C142.076 33.019 141.656 34.0192 140.791 34.8581C139.946 35.6781 138.933 36.081 137.705 36.081C134.738 36.081 133.3 34.6543 133.171 31.5876L133.147 31.0141H129.479L129.488 31.6208C129.522 33.967 130.324 35.8914 131.862 37.3371C133.382 38.778 135.35 39.508 137.71 39.508C139.917 39.508 141.823 38.7543 143.376 37.2707C144.962 35.7682 145.764 33.8959 145.764 31.7108C145.764 29.7438 145.143 28.0658 143.911 26.7292" fill="#C66628"/>
<path d="M180.791 35.6584V13.3477H177.108V39.0711H191V35.6584H180.791Z" fill="#C66628"/>
<path d="M169.732 16.9169C167.195 14.4 164.085 13.125 160.492 13.125C156.9 13.125 153.78 14.4 151.244 16.9169C148.707 19.4385 147.422 22.5242 147.422 26.0886C147.422 26.9797 147.503 27.8329 147.656 28.6434H147.637L147.809 29.3307L147.928 29.8H147.938C148.105 30.3782 148.315 30.9375 148.573 31.4968C149.189 32.8477 150.092 34.1133 151.244 35.2556C153.78 37.7725 156.89 39.0475 160.488 39.0475C164.085 39.0475 167.19 37.7725 169.727 35.2556C170.73 34.2602 171.538 33.1795 172.125 32.0467C172.412 31.5158 172.655 30.9612 172.851 30.383H172.861L172.999 29.9232C172.999 29.9232 172.999 29.9232 172.999 29.9137L173.2 29.2359H173.181C173.42 28.2358 173.544 27.1835 173.544 26.0791C173.544 22.5147 172.259 19.4291 169.722 16.9074M169.76 29.326L169.746 29.3592C169.517 30.0227 169.206 30.6531 168.814 31.2504C168.432 31.8523 167.964 32.4306 167.42 32.9662C165.513 34.8574 163.182 35.8149 160.488 35.8149C157.793 35.8149 155.491 34.8811 153.556 32.9662C152.897 32.3168 152.347 31.6106 151.917 30.8664C151.559 30.2455 151.282 29.6104 151.076 28.9278C150.814 28.0272 150.68 27.0698 150.68 26.0934C150.68 23.4248 151.65 21.1117 153.556 19.2205C155.486 17.3056 157.755 16.3718 160.488 16.3718C163.22 16.3718 165.513 17.3293 167.42 19.2205C169.321 21.1117 170.291 23.4248 170.291 26.0934C170.291 27.2546 170.114 28.3448 169.765 29.326" fill="#C66628"/>
</g>
<defs>
<clipPath id="clip0_2801_16277">
<rect width="191" height="40" fill="white"/>
</clipPath>
</defs>
</svg>
