<svg width="241" height="50" viewBox="0 0 241 50" fill="none" xmlns="http://www.w3.org/2000/svg">
<g clip-path="url(#clip0_2663_21802)">
<path d="M48.627 38.8365L48.8681 39.4113C49.5432 39.5357 50.2183 39.6483 50.8814 39.7668L50.9778 39.2039L48.627 38.8365ZM51.0381 23.7044L50.5679 26.495C50.6282 26.4121 50.6945 26.3232 50.7668 26.2403C52.521 24.2791 53.0032 21.8203 53.0032 21.8203C52.6415 22.2173 51.665 23.1356 51.0381 23.7103M76.9579 41.2657L76.2647 41.2776C75.6438 41.2894 75.0109 41.3072 74.3539 41.3072H74.2393L74.3659 42.0301V42.0419C74.7095 42.0419 75.0531 42.0301 75.3967 42.0241H75.5594C75.9513 42.0241 76.3491 42.0123 76.7349 42.0064C76.8615 42.0064 76.976 41.9945 77.0905 41.9945L76.9639 41.2717L76.9579 41.2657ZM62.6116 40.8273L62.4247 41.2776L62.2138 40.7799C61.3638 40.6851 60.4898 40.5785 59.5977 40.454L59.1516 40.3948L59.4952 41.1887C61.3337 41.4316 63.2023 41.6509 65.0951 41.799L65.3965 41.0821L65.1554 41.0643C64.3115 40.9932 63.4736 40.9221 62.6116 40.8273Z" fill="white"/>
<path d="M81.6657 16.4141H85.7827V42.3769L84.3662 42.4598C83.7393 42.4954 83.1003 42.5368 82.4433 42.5664L81.6597 42.602V16.4141H81.6657Z" fill="white"/>
<path d="M90.0081 41.5177C88.2419 38.9227 87.3438 35.9247 87.3438 32.6186C87.3438 28.1631 88.9652 24.306 92.166 21.154C95.3668 18.0079 99.291 16.4141 103.824 16.4141C108.357 16.4141 112.287 18.0079 115.5 21.1421C117.109 22.7418 118.327 24.5311 119.129 26.4626L119.388 27.0966L115.675 28.9155L115.373 28.169C114.764 26.6582 113.824 25.2599 112.576 24.0038C110.135 21.6279 107.266 20.4667 103.824 20.4667C100.382 20.4667 97.4826 21.6635 95.0775 24.0275C92.6724 26.3856 91.4548 29.277 91.4548 32.6186C91.4548 35.5751 92.3529 38.0813 94.2035 40.2795L95.0594 41.2985L93.7273 41.4763C92.7508 41.6066 91.7561 41.731 90.7073 41.8436L90.2552 41.891L90.002 41.5177H90.0081ZM115.47 36.8371C115.578 36.5409 115.675 36.2387 115.759 35.9306H103.076V31.8839H120.31V32.6186C120.31 34.1591 120.117 35.6284 119.744 36.9793L119.605 37.4711L119.086 37.5185C118.11 37.6073 117.17 37.7021 116.259 37.8147L115.048 37.9628L115.464 36.8371H115.47Z" fill="white"/>
<path d="M153.361 37.9273C152.511 37.8384 151.619 37.7495 150.685 37.6666L149.72 37.5836L150.046 36.689C150.498 35.4507 150.721 34.082 150.721 32.6186C150.721 29.277 149.503 26.3856 147.098 24.0275C144.693 21.6635 141.751 20.4667 138.352 20.4667C134.952 20.4667 132.046 21.6279 129.605 24.0275C127.2 26.3975 125.976 29.2829 125.976 32.6186C125.976 33.8391 126.145 35.0359 126.477 36.1617L126.742 37.0682L125.784 37.1037C124.861 37.1333 123.969 37.1867 123.113 37.2341L122.498 37.2696L122.348 36.6771C122.022 35.4151 121.859 34.0524 121.859 32.6186C121.859 28.1631 123.481 24.306 126.682 21.154C129.882 18.0079 133.807 16.4141 138.352 16.4141C142.897 16.4141 146.809 18.0079 150.009 21.154C153.21 24.306 154.832 28.1631 154.832 32.6186C154.832 34.3131 154.603 35.9247 154.145 37.4118L153.964 37.9984L153.349 37.9332L153.361 37.9273Z" fill="white"/>
<path d="M77.7112 41.2484L76.9638 41.2662L76.2706 41.278C75.6497 41.2899 75.0107 41.3076 74.3597 41.3076H74.2452L73.4857 41.3195L71.3579 29.0432L66.192 41.1536H66.1799L65.4023 41.0825L65.1612 41.0647C64.3173 40.9936 63.4794 40.9225 62.6175 40.8277C62.4848 40.8099 62.3462 40.7981 62.2256 40.7744C61.3757 40.6855 60.5017 40.573 59.6096 40.4485L59.1635 40.3893L58.3015 40.2767L53.5094 29.0432L51.7311 39.3287L50.9837 39.2043L48.6388 38.837L47.7769 38.6948L49.314 29.5468L49.6274 27.6449V27.6271C49.9409 27.2716 50.2603 26.8924 50.5858 26.4955C50.6461 26.4125 50.7124 26.3236 50.7848 26.2407C52.5389 24.2796 53.0211 21.8207 53.0211 21.8207C52.6594 22.2177 51.6829 23.1361 51.056 23.7108C50.7245 24.007 50.4954 24.2203 50.4954 24.2203L50.1639 24.4751L50.6099 21.8326L51.918 14.5391L54.7451 21.2282L62.4426 39.3761L70.1523 21.2282L72.9552 14.5391L74.2753 21.8207L77.7233 41.2543L77.7112 41.2484Z" fill="white"/>
<path d="M53.0029 21.8184C53.0029 21.8184 52.5267 24.2772 50.7666 26.2384C50.6942 26.3213 50.6339 26.4102 50.5676 26.4931C50.2482 26.8901 49.9227 27.2693 49.6152 27.6248L50.1457 24.4668L50.4772 24.2121C50.4772 24.2121 50.7063 23.9988 51.0378 23.7025C51.6587 23.1278 52.6352 22.2095 53.0029 21.8125" fill="white"/>
<path d="M51.725 39.3293L51.6165 39.904L51.4959 40.6268L51.1704 42.4458L50.6399 45.6096L49.3741 42.5346L48.3373 40.0521L47.7646 38.6953L48.6266 38.8375L50.9775 39.2049L51.725 39.3293Z" fill="white"/>
<path d="M66.1861 41.1503L64.5646 44.96L62.4247 49.9962L59.9954 44.2549L58.9647 41.8435L58.2896 40.2734L59.1515 40.386L59.5976 40.4453C60.4897 40.5697 61.3638 40.6823 62.2137 40.7711C62.3403 40.7948 62.4729 40.8008 62.6055 40.8245C63.4675 40.9133 64.3114 40.9844 65.1493 41.0614L65.3904 41.0792L66.168 41.1503H66.18H66.1861Z" fill="white"/>
<path d="M79.0496 48.8279H74.7818L73.733 42.7905L73.4858 41.3211L74.2453 41.3092H74.3599C75.0169 41.3092 75.6498 41.2915 76.2707 41.2796L76.9639 41.2678L77.7114 41.25L77.9706 42.7194L79.0496 48.8279Z" fill="white"/>
<path d="M85.7826 40.8984V48.8259H81.6655V41.1236L82.3828 41.094C83.0399 41.0643 83.6728 41.0229 84.2937 40.9814L85.7826 40.8984Z" fill="white"/>
<path d="M103.824 48.8238C99.2849 48.8238 95.3667 47.23 92.166 44.0839C92.1539 44.0721 92.1057 44.0247 92.1057 44.0247C91.304 43.2308 90.5987 42.3835 90.008 41.5185L89.3208 40.5112L90.5445 40.375C91.5813 40.2624 92.5638 40.138 93.5283 40.0076H93.5765L93.9864 40.0017L94.2215 40.2742C94.4626 40.5705 94.7459 40.8727 95.0834 41.2045C95.4813 41.5955 95.9153 41.9688 96.3734 42.3183L96.5482 42.4427C98.6278 43.9832 101.075 44.7653 103.83 44.7653C107.278 44.7653 110.141 43.5981 112.588 41.1926C113.149 40.6357 113.643 40.0728 114.083 39.4685C114.662 38.639 115.12 37.7739 115.476 36.8319L115.632 36.4112L116.085 36.3579C117.013 36.2453 117.965 36.1446 118.96 36.0557L120.027 35.9609L119.749 36.98C119.472 37.9991 119.098 38.9648 118.628 39.8595C117.881 41.3585 116.82 42.7864 115.488 44.0958C112.287 47.2419 108.363 48.8357 103.824 48.8357" fill="white"/>
<path d="M138.364 48.8237C133.819 48.8237 129.894 47.2299 126.694 44.0838C125.241 42.6559 124.108 41.074 123.324 39.3854C122.908 38.5026 122.595 37.6139 122.36 36.6718L122.143 35.8127L123.041 35.7653C123.909 35.7179 124.807 35.6646 125.741 35.635L126.32 35.6172L126.483 36.1623C126.742 37.0214 127.085 37.8153 127.544 38.5915C128.086 39.5217 128.779 40.4045 129.611 41.2162C132.052 43.6158 134.91 44.777 138.358 44.777C141.805 44.777 144.699 43.5802 147.098 41.2162C147.785 40.5408 148.376 39.8179 148.858 39.0714C149.352 38.3249 149.75 37.5368 150.033 36.7074L150.226 36.1623L150.811 36.2156C151.751 36.2985 152.656 36.3874 153.512 36.4763L154.404 36.5711L154.151 37.4183C153.873 38.3486 153.493 39.2432 153.041 40.0845C152.3 41.5006 151.281 42.8574 150.015 44.0957C146.815 47.2418 142.897 48.8356 138.358 48.8356" fill="white"/>
<path d="M51.0382 23.7054C50.7067 24.0017 50.4776 24.215 50.4776 24.215L50.1461 24.4697L49.9291 24.6415C48.7959 25.5125 47.6325 26.3953 46.4691 27.1537C45.9628 27.4914 45.4926 27.7758 45.0164 28.0306C44.0519 28.5401 43.1357 29.0319 42.1592 29.4585C41.8819 29.571 41.5986 29.6836 41.3153 29.7843L31.5682 6.10854L29.0305 0L26.547 6.10854L18.3612 25.9628C17.5535 25.8384 16.7638 25.7791 16.0043 25.7791C15.6728 25.7791 15.3473 25.791 15.0398 25.8087C12.7613 25.9213 10.4707 26.502 8.19219 27.5625C7.04689 28.1135 5.99804 28.7356 5.04564 29.4288C4.12338 30.1043 3.29153 30.8567 2.55011 31.6684H2.53805L2.50791 31.7099C2.45366 31.7692 2.40544 31.8225 2.35119 31.8758L2.36324 31.8936L0.00634766 34.9034C0.00634766 34.9034 1.54345 33.914 3.27948 32.9719L3.29153 32.9897C4.14146 32.5216 4.97331 32.1247 5.78707 31.8047C8.39713 30.7323 11.0735 30.1931 13.7559 30.1931C14.1839 30.1931 14.5998 30.205 15.0218 30.2346C15.5341 30.2524 16.0284 30.3057 16.5408 30.4005L14.3286 35.7507L13.7137 37.2437L14.865 37.2023C16.0405 37.1608 17.2882 37.143 18.6686 37.143H19.1689L19.5848 36.1713L19.7958 35.6737L21.3872 31.9173L22.0623 32.2254C22.3215 32.338 22.5807 32.492 22.8519 32.652C23.0207 32.7527 23.1955 32.8593 23.3523 32.9364L23.9972 33.3156L24.7688 33.7658L25.6007 34.2458L26.4204 34.6427C28.4338 35.6263 30.6701 36.1121 33.039 36.1121C33.2259 36.1121 33.4007 36.1121 33.5876 36.1002C34.7208 36.0588 35.9143 35.887 37.144 35.5966C37.5479 35.4841 37.9337 35.3715 38.3194 35.2471L39.2779 37.5637L39.9409 39.1693L40.3448 39.2404C41.2188 39.3945 42.0688 39.5485 42.9308 39.7026L45.589 40.1706L44.932 38.5591H44.92L42.756 33.28C43.9856 32.5631 45.2274 31.7158 46.5294 30.6849L46.5836 30.6316C46.7524 30.4894 46.9152 30.3472 47.0719 30.205C47.9218 29.4585 48.7778 28.5934 49.6277 27.6218C49.9412 27.2663 50.2606 26.8871 50.5861 26.4901C50.6464 26.4072 50.7127 26.3183 50.7851 26.2353C52.5392 24.2742 53.0154 21.8154 53.0154 21.8154C52.6537 22.2123 51.6772 23.1307 51.0503 23.7054M36.5412 31.1411C35.6551 31.2833 34.7751 31.3485 33.9131 31.3485H33.5574C31.5743 31.2656 29.7418 30.8153 28.1263 30.0213L27.4934 29.7073L26.1191 28.8897L25.3113 28.4275C25.1968 28.3683 25.0823 28.3031 24.9195 28.1905L24.6483 28.0483C24.3589 27.8765 24.0455 27.7106 23.7019 27.5566L23.0448 27.3018L29.0426 12.7563L36.6196 31.1293C36.6196 31.1293 36.5653 31.1411 36.5473 31.1411" fill="white"/>
<path d="M8.96338 48.7658L14.3221 35.7548L14.8044 35.737C15.9919 35.6896 17.2517 35.6719 18.6562 35.6719H19.7834L18.2222 39.3334L14.2136 48.7658H8.96338Z" fill="white"/>
<path d="M43.8647 48.7702L39.2534 37.5781L40.5795 37.8033C41.4536 37.9514 42.3156 38.1054 43.1715 38.2595L44.9136 38.5676L46.2457 41.7966L49.109 48.7643H43.8647V48.7702Z" fill="white"/>
<path d="M181.577 33.4076C180.203 31.9264 178.238 30.8006 175.742 30.06L173.265 29.3372C172.33 29.041 171.565 28.7388 171.004 28.4248C169.576 27.6308 168.876 26.511 168.876 25.012C168.876 23.679 169.335 22.6065 170.287 21.7297C171.233 20.8469 172.367 20.4203 173.753 20.4203C175.139 20.4203 176.17 20.8883 177.117 21.8482C178.051 22.8021 178.509 23.91 178.509 25.2313V25.9778H183.156V25.2313C183.156 22.6599 182.228 20.4736 180.396 18.7258C178.599 17.0194 176.363 16.1484 173.753 16.1484C171.143 16.1484 168.87 16.9898 167.044 18.6547C165.175 20.361 164.229 22.5354 164.229 25.1305C164.229 27.7256 165.127 29.8349 166.893 31.2746C167.617 31.8553 168.545 32.3826 169.642 32.8388C170.45 33.1884 171.529 33.5557 172.861 33.9408C173.849 34.2252 174.675 34.5037 175.308 34.7585C176.14 35.108 176.833 35.4931 177.364 35.896C178.648 36.8736 179.269 38.1356 179.269 39.7531C179.269 41.2699 178.738 42.52 177.647 43.5687C176.58 44.5938 175.302 45.0974 173.753 45.0974C170.01 45.0974 168.195 43.314 168.033 39.4806L168.002 38.7637H163.373L163.385 39.5221C163.427 42.4549 164.44 44.8604 166.381 46.6675C168.298 48.4686 170.781 49.381 173.759 49.381C176.544 49.381 178.949 48.439 180.908 46.5845C182.909 44.7063 183.922 42.366 183.922 39.6346C183.922 37.1758 183.138 35.0784 181.583 33.4076" fill="white"/>
<path d="M228.119 44.5759V16.6875H223.471V48.8418H241V44.5759H228.119Z" fill="white"/>
<path d="M214.164 21.1461C210.963 18 207.039 16.4062 202.506 16.4062C197.973 16.4062 194.037 18 190.836 21.1461C187.635 24.2982 186.014 28.1553 186.014 32.6108C186.014 33.7247 186.116 34.7911 186.309 35.8043H186.285L186.502 36.6634L186.653 37.25H186.665C186.876 37.9728 187.141 38.6719 187.466 39.3711C188.244 41.0596 189.383 42.6416 190.836 44.0695C194.037 47.2156 197.961 48.8094 202.5 48.8094C207.039 48.8094 210.957 47.2156 214.158 44.0695C215.424 42.8253 216.442 41.4744 217.184 40.0583C217.545 39.3948 217.853 38.7015 218.1 37.9787H218.112L218.287 37.404C218.287 37.404 218.287 37.404 218.287 37.3921L218.54 36.5449H218.516C218.817 35.2947 218.974 33.9794 218.974 32.5989C218.974 28.1434 217.353 24.2863 214.152 21.1343M214.2 36.6575L214.182 36.6989C213.893 37.5284 213.501 38.3164 213.006 39.063C212.524 39.8154 211.933 40.5383 211.246 41.2078C208.841 43.5718 205.9 44.7686 202.5 44.7686C199.1 44.7686 196.195 43.6014 193.753 41.2078C192.922 40.3961 192.228 39.5133 191.686 38.583C191.234 37.8069 190.884 37.013 190.625 36.1598C190.293 35.034 190.125 33.8372 190.125 32.6167C190.125 29.281 191.348 26.3897 193.753 24.0256C196.189 21.632 199.052 20.4648 202.5 20.4648C205.948 20.4648 208.841 21.6616 211.246 24.0256C213.645 26.3897 214.869 29.281 214.869 32.6167C214.869 34.0683 214.646 35.431 214.206 36.6575" fill="white"/>
</g>
<defs>
<clipPath id="clip0_2663_21802">
<rect width="241" height="50" fill="white"/>
</clipPath>
</defs>
</svg>
